<mxfile host="65bd71144e">
    <diagram id="M7OO5rrIDAVTVPP12NKw" name="Flow">
        <mxGraphModel dx="1125" dy="661" grid="1" gridSize="10" guides="1" tooltips="1" connect="1" arrows="1" fold="1" page="1" pageScale="1" pageWidth="1100" pageHeight="850" math="0" shadow="0">
            <root>
                <mxCell id="0"/>
                <mxCell id="1" parent="0"/>
                <mxCell id="mQ48e2Va2z9JHEJBgprD-2" value="Add Labour" style="strokeWidth=1;shadow=0;dashed=0;align=center;html=1;shape=mxgraph.mockup.containers.window;align=left;verticalAlign=top;spacingLeft=8;strokeColor2=#008cff;strokeColor3=#c4c4c4;fontColor=#666666;mainText=;fontSize=17;labelBackgroundColor=none;" parent="1" vertex="1">
                    <mxGeometry x="2760" y="880" width="240" height="370" as="geometry"/>
                </mxCell>
                <mxCell id="PFeHFat0qIq5NRPBdQmR-92" value="..&amp;nbsp; (2/3) continued.." style="strokeWidth=1;shadow=0;dashed=0;align=center;html=1;shape=mxgraph.mockup.containers.window;align=left;verticalAlign=top;spacingLeft=8;strokeColor2=#008cff;strokeColor3=#c4c4c4;fontColor=#666666;mainText=;fontSize=17;labelBackgroundColor=none;" parent="1" vertex="1">
                    <mxGeometry x="1690" y="881" width="240" height="289" as="geometry"/>
                </mxCell>
                <mxCell id="lYq7w-tFQBmFcb-JNEUe-1" value="..&amp;nbsp; (2/3) continued.." style="strokeWidth=1;shadow=0;dashed=0;align=center;html=1;shape=mxgraph.mockup.containers.window;align=left;verticalAlign=top;spacingLeft=8;strokeColor2=#008cff;strokeColor3=#c4c4c4;fontColor=#666666;mainText=;fontSize=17;labelBackgroundColor=none;" parent="1" vertex="1">
                    <mxGeometry x="1418" y="880" width="240" height="700" as="geometry"/>
                </mxCell>
                <mxCell id="PFeHFat0qIq5NRPBdQmR-67" value="" style="rounded=1;whiteSpace=wrap;html=1;shadow=0;fontFamily=Helvetica;fontSize=10;fillColor=#FFFFFF;strokeColor=#C7C7C7;" parent="1" vertex="1">
                    <mxGeometry x="1427" y="948" width="219.5" height="60" as="geometry"/>
                </mxCell>
                <mxCell id="55" style="edgeStyle=none;html=1;entryX=0.25;entryY=1;entryDx=0;entryDy=0;" parent="1" source="CNkwPxVMg8bD5Nznt0NU-2" target="54" edge="1">
                    <mxGeometry relative="1" as="geometry"/>
                </mxCell>
                <mxCell id="CNkwPxVMg8bD5Nznt0NU-2" value="LOGIN" style="rounded=1;whiteSpace=wrap;html=1;fillColor=#CCFFFF;" parent="1" vertex="1">
                    <mxGeometry x="32.5" y="583" width="160" height="80" as="geometry"/>
                </mxCell>
                <mxCell id="55RVO9zuL2QJUInykwMi-25" style="edgeStyle=none;html=1;entryX=0.75;entryY=0;entryDx=0;entryDy=0;fontSize=10;exitX=1;exitY=0.5;exitDx=0;exitDy=0;" parent="1" source="CNkwPxVMg8bD5Nznt0NU-11" target="CNkwPxVMg8bD5Nznt0NU-9" edge="1">
                    <mxGeometry relative="1" as="geometry"/>
                </mxCell>
                <mxCell id="CNkwPxVMg8bD5Nznt0NU-6" value="CLIENT LANDING" style="rounded=1;whiteSpace=wrap;html=1;fillColor=#CCFFFF;" parent="1" vertex="1">
                    <mxGeometry x="409" y="390" width="160" height="80" as="geometry"/>
                </mxCell>
                <mxCell id="55RVO9zuL2QJUInykwMi-3" style="edgeStyle=none;html=1;fontSize=10;" parent="1" source="CNkwPxVMg8bD5Nznt0NU-1" target="CNkwPxVMg8bD5Nznt0NU-2" edge="1">
                    <mxGeometry relative="1" as="geometry">
                        <mxPoint x="71.32520325203245" y="482.32520325203245" as="targetPoint"/>
                    </mxGeometry>
                </mxCell>
                <mxCell id="CNkwPxVMg8bD5Nznt0NU-1" value="" style="ellipse;whiteSpace=wrap;html=1;" parent="1" vertex="1">
                    <mxGeometry x="52" y="380" width="40" height="40" as="geometry"/>
                </mxCell>
                <mxCell id="55RVO9zuL2QJUInykwMi-7" style="edgeStyle=none;html=1;entryX=0;entryY=0;entryDx=0;entryDy=0;fontSize=10;exitX=0.75;exitY=1;exitDx=0;exitDy=0;" parent="1" source="CNkwPxVMg8bD5Nznt0NU-2" target="48" edge="1">
                    <mxGeometry relative="1" as="geometry"/>
                </mxCell>
                <mxCell id="55RVO9zuL2QJUInykwMi-24" style="edgeStyle=none;html=1;entryX=0;entryY=0.75;entryDx=0;entryDy=0;fontSize=10;" parent="1" target="CNkwPxVMg8bD5Nznt0NU-6" edge="1">
                    <mxGeometry relative="1" as="geometry">
                        <mxPoint x="360" y="560" as="sourcePoint"/>
                    </mxGeometry>
                </mxCell>
                <mxCell id="CNkwPxVMg8bD5Nznt0NU-4" value="is Client?" style="rhombus;whiteSpace=wrap;html=1;fillColor=#FFFFCC;" parent="1" vertex="1">
                    <mxGeometry x="320" y="479" width="80" height="80" as="geometry"/>
                </mxCell>
                <mxCell id="CNkwPxVMg8bD5Nznt0NU-14" style="edgeStyle=none;html=1;" parent="1" source="CNkwPxVMg8bD5Nznt0NU-6" target="CNkwPxVMg8bD5Nznt0NU-11" edge="1">
                    <mxGeometry relative="1" as="geometry">
                        <mxPoint x="683" y="639" as="targetPoint"/>
                    </mxGeometry>
                </mxCell>
                <mxCell id="55RVO9zuL2QJUInykwMi-27" style="edgeStyle=none;html=1;entryX=0.25;entryY=0;entryDx=0;entryDy=0;fontSize=10;" parent="1" source="CNkwPxVMg8bD5Nznt0NU-9" target="CNkwPxVMg8bD5Nznt0NU-19" edge="1">
                    <mxGeometry relative="1" as="geometry"/>
                </mxCell>
                <mxCell id="CNkwPxVMg8bD5Nznt0NU-9" value="View Requests" style="rounded=0;whiteSpace=wrap;html=1;fillColor=#E6E6E6;" parent="1" vertex="1">
                    <mxGeometry x="655" y="522.5" width="120" height="40" as="geometry"/>
                </mxCell>
                <mxCell id="55RVO9zuL2QJUInykwMi-26" style="edgeStyle=none;html=1;entryX=0;entryY=0.5;entryDx=0;entryDy=0;fontSize=10;exitX=0.5;exitY=0;exitDx=0;exitDy=0;" parent="1" source="CNkwPxVMg8bD5Nznt0NU-11" target="CNkwPxVMg8bD5Nznt0NU-32" edge="1">
                    <mxGeometry relative="1" as="geometry"/>
                </mxCell>
                <mxCell id="66" style="edgeStyle=none;html=1;entryX=0.75;entryY=0;entryDx=0;entryDy=0;" parent="1" source="CNkwPxVMg8bD5Nznt0NU-11" target="65" edge="1">
                    <mxGeometry relative="1" as="geometry"/>
                </mxCell>
                <mxCell id="CNkwPxVMg8bD5Nznt0NU-11" value="button?" style="rhombus;whiteSpace=wrap;html=1;fillColor=#DEDEDE;" parent="1" vertex="1">
                    <mxGeometry x="595" y="390" width="80" height="80" as="geometry"/>
                </mxCell>
                <mxCell id="CNkwPxVMg8bD5Nznt0NU-27" style="edgeStyle=none;html=1;entryX=0.837;entryY=0.349;entryDx=0;entryDy=0;entryPerimeter=0;" parent="1" source="CNkwPxVMg8bD5Nznt0NU-17" target="CNkwPxVMg8bD5Nznt0NU-26" edge="1">
                    <mxGeometry relative="1" as="geometry">
                        <mxPoint x="3440" y="161" as="sourcePoint"/>
                        <mxPoint x="3400" y="181" as="targetPoint"/>
                    </mxGeometry>
                </mxCell>
                <mxCell id="CNkwPxVMg8bD5Nznt0NU-17" value="NEW REQUEST&lt;br&gt;&lt;font style=&quot;font-size: 10px;&quot;&gt;(single)&lt;/font&gt;" style="rounded=1;whiteSpace=wrap;html=1;fillColor=#CCFFFF;" parent="1" vertex="1">
                    <mxGeometry x="3440" y="81" width="160" height="80" as="geometry"/>
                </mxCell>
                <mxCell id="55RVO9zuL2QJUInykwMi-31" style="edgeStyle=none;html=1;entryX=0.5;entryY=1;entryDx=0;entryDy=0;fontSize=10;" parent="1" source="CNkwPxVMg8bD5Nznt0NU-19" target="CNkwPxVMg8bD5Nznt0NU-34" edge="1">
                    <mxGeometry relative="1" as="geometry"/>
                </mxCell>
                <mxCell id="CNkwPxVMg8bD5Nznt0NU-19" value="VIEW REQUESTS&lt;br&gt;&lt;font style=&quot;font-size: 10px;&quot;&gt;(all)&lt;/font&gt;" style="rounded=1;whiteSpace=wrap;html=1;fillColor=#CCFFFF;" parent="1" vertex="1">
                    <mxGeometry x="715" y="625" width="160" height="80" as="geometry"/>
                </mxCell>
                <mxCell id="CNkwPxVMg8bD5Nznt0NU-22" value="&lt;i&gt;Cancel Request&lt;/i&gt;" style="rounded=0;whiteSpace=wrap;html=1;fillColor=#E6E6E6;" parent="1" vertex="1">
                    <mxGeometry x="3460" y="181" width="120" height="40" as="geometry"/>
                </mxCell>
                <mxCell id="CNkwPxVMg8bD5Nznt0NU-30" style="edgeStyle=none;html=1;exitX=0.5;exitY=1;exitDx=0;exitDy=0;entryX=0.5;entryY=0;entryDx=0;entryDy=0;" parent="1" source="CNkwPxVMg8bD5Nznt0NU-23" target="CNkwPxVMg8bD5Nznt0NU-29" edge="1">
                    <mxGeometry relative="1" as="geometry"/>
                </mxCell>
                <mxCell id="CNkwPxVMg8bD5Nznt0NU-23" value="New Request" style="rounded=0;whiteSpace=wrap;html=1;fillColor=#E6E6E6;" parent="1" vertex="1">
                    <mxGeometry x="3460" y="241" width="120" height="40" as="geometry"/>
                </mxCell>
                <mxCell id="CNkwPxVMg8bD5Nznt0NU-24" style="edgeStyle=none;html=1;entryX=0;entryY=0.5;entryDx=0;entryDy=0;exitX=0.671;exitY=0.858;exitDx=0;exitDy=0;exitPerimeter=0;" parent="1" source="CNkwPxVMg8bD5Nznt0NU-26" target="CNkwPxVMg8bD5Nznt0NU-23" edge="1">
                    <mxGeometry relative="1" as="geometry">
                        <mxPoint x="3402.857142857143" y="218.1428571428571" as="sourcePoint"/>
                    </mxGeometry>
                </mxCell>
                <mxCell id="CNkwPxVMg8bD5Nznt0NU-25" style="edgeStyle=none;html=1;entryX=0;entryY=0.5;entryDx=0;entryDy=0;exitX=1;exitY=1;exitDx=0;exitDy=0;" parent="1" source="CNkwPxVMg8bD5Nznt0NU-26" target="CNkwPxVMg8bD5Nznt0NU-22" edge="1">
                    <mxGeometry relative="1" as="geometry">
                        <mxPoint x="3420" y="201" as="sourcePoint"/>
                    </mxGeometry>
                </mxCell>
                <mxCell id="CNkwPxVMg8bD5Nznt0NU-26" value="button?" style="rhombus;whiteSpace=wrap;html=1;fillColor=#E6E6E6;" parent="1" vertex="1">
                    <mxGeometry x="3340" y="141" width="80" height="80" as="geometry"/>
                </mxCell>
                <mxCell id="CNkwPxVMg8bD5Nznt0NU-29" value="Create New Request" style="rounded=0;whiteSpace=wrap;html=1;fillColor=#FFFFCC;" parent="1" vertex="1">
                    <mxGeometry x="3460" y="301" width="120" height="40" as="geometry"/>
                </mxCell>
                <mxCell id="mQ48e2Va2z9JHEJBgprD-37" style="edgeStyle=none;html=1;entryX=0;entryY=0.5;entryDx=0;entryDy=0;fontSize=10;" parent="1" source="CNkwPxVMg8bD5Nznt0NU-32" target="CNkwPxVMg8bD5Nznt0NU-17" edge="1">
                    <mxGeometry relative="1" as="geometry"/>
                </mxCell>
                <mxCell id="CNkwPxVMg8bD5Nznt0NU-32" value="New Request" style="rounded=0;whiteSpace=wrap;html=1;fillColor=#E6E6E6;" parent="1" vertex="1">
                    <mxGeometry x="1459" y="101" width="120" height="40" as="geometry"/>
                </mxCell>
                <mxCell id="CNkwPxVMg8bD5Nznt0NU-39" style="edgeStyle=none;html=1;entryX=0;entryY=0.5;entryDx=0;entryDy=0;" parent="1" source="CNkwPxVMg8bD5Nznt0NU-34" target="CNkwPxVMg8bD5Nznt0NU-37" edge="1">
                    <mxGeometry relative="1" as="geometry"/>
                </mxCell>
                <mxCell id="55RVO9zuL2QJUInykwMi-28" style="edgeStyle=none;html=1;entryX=0;entryY=1;entryDx=0;entryDy=0;fontSize=10;" parent="1" source="CNkwPxVMg8bD5Nznt0NU-34" target="CNkwPxVMg8bD5Nznt0NU-32" edge="1">
                    <mxGeometry relative="1" as="geometry"/>
                </mxCell>
                <mxCell id="CNkwPxVMg8bD5Nznt0NU-34" value="button?" style="rhombus;whiteSpace=wrap;html=1;fillColor=#E6E6E6;" parent="1" vertex="1">
                    <mxGeometry x="802" y="505" width="80" height="80" as="geometry"/>
                </mxCell>
                <mxCell id="55RVO9zuL2QJUInykwMi-33" style="edgeStyle=none;html=1;entryX=0;entryY=0.5;entryDx=0;entryDy=0;fontSize=10;" parent="1" source="CNkwPxVMg8bD5Nznt0NU-37" target="CNkwPxVMg8bD5Nznt0NU-38" edge="1">
                    <mxGeometry relative="1" as="geometry"/>
                </mxCell>
                <mxCell id="CNkwPxVMg8bD5Nznt0NU-37" value="Status" style="rounded=0;whiteSpace=wrap;html=1;fillColor=#E6E6E6;" parent="1" vertex="1">
                    <mxGeometry x="955" y="522.5" width="120" height="40" as="geometry"/>
                </mxCell>
                <mxCell id="CNkwPxVMg8bD5Nznt0NU-90" style="edgeStyle=none;html=1;fontSize=10;exitX=0.5;exitY=0;exitDx=0;exitDy=0;" parent="1" source="CNkwPxVMg8bD5Nznt0NU-38" target="CNkwPxVMg8bD5Nznt0NU-49" edge="1">
                    <mxGeometry relative="1" as="geometry"/>
                </mxCell>
                <mxCell id="CNkwPxVMg8bD5Nznt0NU-38" value="VIEW REQUEST&lt;br&gt;&lt;font style=&quot;font-size: 10px;&quot;&gt;(single)&lt;/font&gt;" style="rounded=1;whiteSpace=wrap;html=1;fillColor=#CCFFFF;" parent="1" vertex="1">
                    <mxGeometry x="1170" y="721" width="160" height="80" as="geometry"/>
                </mxCell>
                <mxCell id="PFeHFat0qIq5NRPBdQmR-123" style="edgeStyle=none;html=1;entryX=0.5;entryY=0;entryDx=0;entryDy=0;fontSize=10;" parent="1" source="CNkwPxVMg8bD5Nznt0NU-45" target="YbFCL8d-j3u_tiSrlF40-4" edge="1">
                    <mxGeometry relative="1" as="geometry"/>
                </mxCell>
                <mxCell id="CNkwPxVMg8bD5Nznt0NU-45" value="Edit Request" style="rounded=0;whiteSpace=wrap;html=1;fillColor=#E6E6E6;" parent="1" vertex="1">
                    <mxGeometry x="2231" y="410" width="120" height="40" as="geometry"/>
                </mxCell>
                <mxCell id="CNkwPxVMg8bD5Nznt0NU-87" style="edgeStyle=none;html=1;fontSize=10;" parent="1" source="CNkwPxVMg8bD5Nznt0NU-46" target="CNkwPxVMg8bD5Nznt0NU-59" edge="1">
                    <mxGeometry relative="1" as="geometry"/>
                </mxCell>
                <mxCell id="CNkwPxVMg8bD5Nznt0NU-46" value="Approve Request" style="rounded=0;whiteSpace=wrap;html=1;fillColor=#E6E6E6;" parent="1" vertex="1">
                    <mxGeometry x="1177.5" y="460" width="120" height="40" as="geometry"/>
                </mxCell>
                <mxCell id="CNkwPxVMg8bD5Nznt0NU-54" style="edgeStyle=none;html=1;fontSize=10;" parent="1" source="CNkwPxVMg8bD5Nznt0NU-49" target="CNkwPxVMg8bD5Nznt0NU-46" edge="1">
                    <mxGeometry relative="1" as="geometry">
                        <mxPoint x="1754" y="362" as="sourcePoint"/>
                    </mxGeometry>
                </mxCell>
                <mxCell id="55RVO9zuL2QJUInykwMi-37" style="edgeStyle=none;html=1;entryX=1;entryY=0.5;entryDx=0;entryDy=0;fontSize=10;" parent="1" source="CNkwPxVMg8bD5Nznt0NU-49" target="CNkwPxVMg8bD5Nznt0NU-53" edge="1">
                    <mxGeometry relative="1" as="geometry"/>
                </mxCell>
                <mxCell id="55RVO9zuL2QJUInykwMi-43" style="edgeStyle=none;html=1;entryX=0.5;entryY=0;entryDx=0;entryDy=0;fontSize=10;" parent="1" source="CNkwPxVMg8bD5Nznt0NU-49" target="55RVO9zuL2QJUInykwMi-41" edge="1">
                    <mxGeometry relative="1" as="geometry"/>
                </mxCell>
                <mxCell id="PFeHFat0qIq5NRPBdQmR-16" style="edgeStyle=none;html=1;entryX=0;entryY=0.5;entryDx=0;entryDy=0;fontSize=10;exitX=1;exitY=0.5;exitDx=0;exitDy=0;" parent="1" source="CNkwPxVMg8bD5Nznt0NU-49" target="CNkwPxVMg8bD5Nznt0NU-52" edge="1">
                    <mxGeometry relative="1" as="geometry">
                        <mxPoint x="1684.6923076923076" y="528.3076923076924" as="sourcePoint"/>
                    </mxGeometry>
                </mxCell>
                <mxCell id="PFeHFat0qIq5NRPBdQmR-17" style="edgeStyle=none;html=1;entryX=0;entryY=0.5;entryDx=0;entryDy=0;fontSize=10;" parent="1" source="CNkwPxVMg8bD5Nznt0NU-49" target="PFeHFat0qIq5NRPBdQmR-12" edge="1">
                    <mxGeometry relative="1" as="geometry"/>
                </mxCell>
                <mxCell id="PFeHFat0qIq5NRPBdQmR-118" style="edgeStyle=none;html=1;entryX=0;entryY=0.5;entryDx=0;entryDy=0;fontSize=10;exitX=0.889;exitY=0.39;exitDx=0;exitDy=0;exitPerimeter=0;" parent="1" source="CNkwPxVMg8bD5Nznt0NU-49" target="CNkwPxVMg8bD5Nznt0NU-45" edge="1">
                    <mxGeometry relative="1" as="geometry"/>
                </mxCell>
                <mxCell id="PFeHFat0qIq5NRPBdQmR-119" style="edgeStyle=none;html=1;entryX=0;entryY=0.5;entryDx=0;entryDy=0;fontSize=10;exitX=0.5;exitY=0;exitDx=0;exitDy=0;" parent="1" source="CNkwPxVMg8bD5Nznt0NU-49" target="CNkwPxVMg8bD5Nznt0NU-95" edge="1">
                    <mxGeometry relative="1" as="geometry"/>
                </mxCell>
                <mxCell id="PFeHFat0qIq5NRPBdQmR-120" style="edgeStyle=none;html=1;entryX=0;entryY=0.5;entryDx=0;entryDy=0;fontSize=10;exitX=0.5;exitY=0;exitDx=0;exitDy=0;" parent="1" source="CNkwPxVMg8bD5Nznt0NU-49" target="PFeHFat0qIq5NRPBdQmR-114" edge="1">
                    <mxGeometry relative="1" as="geometry">
                        <mxPoint x="1519" y="510" as="sourcePoint"/>
                    </mxGeometry>
                </mxCell>
                <mxCell id="PFeHFat0qIq5NRPBdQmR-121" style="edgeStyle=none;html=1;entryX=0;entryY=0.5;entryDx=0;entryDy=0;fontSize=10;exitX=1;exitY=0;exitDx=0;exitDy=0;" parent="1" source="CNkwPxVMg8bD5Nznt0NU-49" target="CNkwPxVMg8bD5Nznt0NU-96" edge="1">
                    <mxGeometry relative="1" as="geometry"/>
                </mxCell>
                <mxCell id="PFeHFat0qIq5NRPBdQmR-122" style="edgeStyle=none;html=1;entryX=0;entryY=0.5;entryDx=0;entryDy=0;fontSize=10;exitX=1;exitY=0;exitDx=0;exitDy=0;" parent="1" source="CNkwPxVMg8bD5Nznt0NU-49" target="PFeHFat0qIq5NRPBdQmR-115" edge="1">
                    <mxGeometry relative="1" as="geometry"/>
                </mxCell>
                <mxCell id="CNkwPxVMg8bD5Nznt0NU-49" value="button?" style="rhombus;whiteSpace=wrap;html=1;fillColor=#DEDEDE;" parent="1" vertex="1">
                    <mxGeometry x="1450" y="481" width="80" height="80" as="geometry"/>
                </mxCell>
                <mxCell id="PFeHFat0qIq5NRPBdQmR-25" style="edgeStyle=none;html=1;entryX=0.5;entryY=0;entryDx=0;entryDy=0;fontSize=10;" parent="1" source="CNkwPxVMg8bD5Nznt0NU-52" target="PFeHFat0qIq5NRPBdQmR-18" edge="1">
                    <mxGeometry relative="1" as="geometry"/>
                </mxCell>
                <mxCell id="CNkwPxVMg8bD5Nznt0NU-52" value="New Note" style="rounded=0;whiteSpace=wrap;html=1;fillColor=#E6E6E6;" parent="1" vertex="1">
                    <mxGeometry x="1762" y="559" width="120" height="40" as="geometry"/>
                </mxCell>
                <mxCell id="CNkwPxVMg8bD5Nznt0NU-89" style="edgeStyle=none;html=1;entryX=0.5;entryY=0;entryDx=0;entryDy=0;fontSize=10;" parent="1" source="CNkwPxVMg8bD5Nznt0NU-53" target="CNkwPxVMg8bD5Nznt0NU-64" edge="1">
                    <mxGeometry relative="1" as="geometry">
                        <mxPoint x="1272" y="651" as="targetPoint"/>
                    </mxGeometry>
                </mxCell>
                <mxCell id="CNkwPxVMg8bD5Nznt0NU-53" value="Cancel Request" style="rounded=0;whiteSpace=wrap;html=1;fillColor=#E6E6E6;" parent="1" vertex="1">
                    <mxGeometry x="1268" y="546" width="120" height="40" as="geometry"/>
                </mxCell>
                <mxCell id="55RVO9zuL2QJUInykwMi-34" style="edgeStyle=none;html=1;entryX=0;entryY=0;entryDx=0;entryDy=0;fontSize=10;" parent="1" source="CNkwPxVMg8bD5Nznt0NU-59" target="CNkwPxVMg8bD5Nznt0NU-38" edge="1">
                    <mxGeometry relative="1" as="geometry"/>
                </mxCell>
                <mxCell id="CNkwPxVMg8bD5Nznt0NU-59" value="Approve" style="rounded=0;whiteSpace=wrap;html=1;fillColor=#FFFFCC;" parent="1" vertex="1">
                    <mxGeometry x="1110" y="541" width="120" height="40" as="geometry"/>
                </mxCell>
                <mxCell id="55RVO9zuL2QJUInykwMi-38" style="edgeStyle=none;html=1;entryX=0.25;entryY=0;entryDx=0;entryDy=0;fontSize=10;" parent="1" source="CNkwPxVMg8bD5Nznt0NU-64" target="CNkwPxVMg8bD5Nznt0NU-38" edge="1">
                    <mxGeometry relative="1" as="geometry"/>
                </mxCell>
                <mxCell id="CNkwPxVMg8bD5Nznt0NU-64" value="Cancel" style="rounded=0;whiteSpace=wrap;html=1;fillColor=#FFFFCC;" parent="1" vertex="1">
                    <mxGeometry x="1194" y="611" width="120" height="39" as="geometry"/>
                </mxCell>
                <mxCell id="PFeHFat0qIq5NRPBdQmR-29" style="edgeStyle=none;html=1;entryX=1;entryY=0.75;entryDx=0;entryDy=0;fontSize=10;" parent="1" source="CNkwPxVMg8bD5Nznt0NU-67" target="CNkwPxVMg8bD5Nznt0NU-38" edge="1">
                    <mxGeometry relative="1" as="geometry"/>
                </mxCell>
                <mxCell id="CNkwPxVMg8bD5Nznt0NU-67" value="New Note" style="rounded=0;whiteSpace=wrap;html=1;fillColor=#FFFFCC;" parent="1" vertex="1">
                    <mxGeometry x="1622" y="762" width="120" height="40" as="geometry"/>
                </mxCell>
                <mxCell id="CNkwPxVMg8bD5Nznt0NU-71" value="SCREEN" style="rounded=1;whiteSpace=wrap;html=1;fillColor=#CCFFFF;" parent="1" vertex="1">
                    <mxGeometry x="990" y="5" width="100" height="30" as="geometry"/>
                </mxCell>
                <mxCell id="CNkwPxVMg8bD5Nznt0NU-72" value="BUTTON" style="rounded=1;whiteSpace=wrap;html=1;fillColor=#E6E6E6;" parent="1" vertex="1">
                    <mxGeometry x="990" y="40" width="100" height="30" as="geometry"/>
                </mxCell>
                <mxCell id="CNkwPxVMg8bD5Nznt0NU-73" value="DATA UPDATE" style="rounded=1;whiteSpace=wrap;html=1;fillColor=#FFFFCC;" parent="1" vertex="1">
                    <mxGeometry x="990" y="75" width="100" height="30" as="geometry"/>
                </mxCell>
                <mxCell id="CNkwPxVMg8bD5Nznt0NU-75" value="Y" style="text;html=1;strokeColor=none;fillColor=none;align=center;verticalAlign=middle;whiteSpace=wrap;rounded=0;fontSize=10;" parent="1" vertex="1">
                    <mxGeometry x="371" y="460" width="29" height="24" as="geometry"/>
                </mxCell>
                <mxCell id="mQ48e2Va2z9JHEJBgprD-36" style="edgeStyle=none;html=1;entryX=0.75;entryY=0;entryDx=0;entryDy=0;fontSize=10;" parent="1" source="CNkwPxVMg8bD5Nznt0NU-95" target="YbFCL8d-j3u_tiSrlF40-7" edge="1">
                    <mxGeometry relative="1" as="geometry"/>
                </mxCell>
                <mxCell id="CNkwPxVMg8bD5Nznt0NU-95" value="Edit Labour" style="rounded=0;whiteSpace=wrap;html=1;fillColor=#E6E6E6;" parent="1" vertex="1">
                    <mxGeometry x="2848" y="131" width="120" height="40" as="geometry"/>
                </mxCell>
                <mxCell id="mQ48e2Va2z9JHEJBgprD-14" style="edgeStyle=none;html=1;entryX=0.5;entryY=0;entryDx=0;entryDy=0;fontSize=10;" parent="1" source="CNkwPxVMg8bD5Nznt0NU-96" target="PFeHFat0qIq5NRPBdQmR-117" edge="1">
                    <mxGeometry relative="1" as="geometry"/>
                </mxCell>
                <mxCell id="CNkwPxVMg8bD5Nznt0NU-96" value="Edit Parts" style="rounded=0;whiteSpace=wrap;html=1;fillColor=#E6E6E6;" parent="1" vertex="1">
                    <mxGeometry x="2519" y="301" width="120" height="40" as="geometry"/>
                </mxCell>
                <mxCell id="YbFCL8d-j3u_tiSrlF40-4" value="EDIT REQUEST&amp;nbsp;&lt;br&gt;&lt;font style=&quot;font-size: 10px;&quot;&gt;(single)&lt;/font&gt;" style="rounded=1;whiteSpace=wrap;html=1;fillColor=#CCFFFF;" parent="1" vertex="1">
                    <mxGeometry x="2212" y="481" width="160" height="80" as="geometry"/>
                </mxCell>
                <mxCell id="YbFCL8d-j3u_tiSrlF40-6" value="&lt;font style=&quot;&quot;&gt;ADD LABOUR&lt;br&gt;&lt;/font&gt;&lt;font style=&quot;font-size: 10px;&quot;&gt;(single)&lt;/font&gt;" style="rounded=1;whiteSpace=wrap;html=1;fillColor=#CCFFFF;" parent="1" vertex="1">
                    <mxGeometry x="2710" y="480.5" width="160" height="80" as="geometry"/>
                </mxCell>
                <mxCell id="YbFCL8d-j3u_tiSrlF40-7" value="EDIT LABOUR&lt;br&gt;&lt;font style=&quot;font-size: 10px;&quot;&gt;(single)&lt;/font&gt;" style="rounded=1;whiteSpace=wrap;html=1;fillColor=#CCFFFF;" parent="1" vertex="1">
                    <mxGeometry x="2790" y="572" width="160" height="80" as="geometry"/>
                </mxCell>
                <mxCell id="QeGPy931lr3a5L6l3l3y-1" value="Login" style="strokeWidth=1;shadow=0;dashed=0;align=center;html=1;shape=mxgraph.mockup.containers.window;align=left;verticalAlign=top;spacingLeft=8;strokeColor2=#008cff;strokeColor3=#c4c4c4;fontColor=#666666;mainText=;fontSize=17;labelBackgroundColor=none;" parent="1" vertex="1">
                    <mxGeometry x="34" y="881" width="240" height="348" as="geometry"/>
                </mxCell>
                <mxCell id="QeGPy931lr3a5L6l3l3y-2" value="Sign In" style="strokeWidth=1;shadow=0;dashed=0;align=center;html=1;shape=mxgraph.mockup.buttons.button;strokeColor=#666666;fontColor=#ffffff;mainText=;buttonStyle=round;fontSize=17;fontStyle=1;fillColor=#008cff;whiteSpace=wrap;" parent="1" vertex="1">
                    <mxGeometry x="74" y="1048" width="150" height="40" as="geometry"/>
                </mxCell>
                <mxCell id="QeGPy931lr3a5L6l3l3y-3" value="John Doe" style="rounded=0;whiteSpace=wrap;html=1;" parent="1" vertex="1">
                    <mxGeometry x="44" y="968" width="220" height="20" as="geometry"/>
                </mxCell>
                <mxCell id="QeGPy931lr3a5L6l3l3y-4" value="&lt;font style=&quot;font-size: 14px;&quot;&gt;User Email:&amp;nbsp;&lt;/font&gt;" style="text;html=1;strokeColor=none;fillColor=none;align=left;verticalAlign=middle;whiteSpace=wrap;rounded=0;" parent="1" vertex="1">
                    <mxGeometry x="44" y="943" width="220" height="30" as="geometry"/>
                </mxCell>
                <mxCell id="QeGPy931lr3a5L6l3l3y-5" value="***********" style="rounded=0;whiteSpace=wrap;html=1;" parent="1" vertex="1">
                    <mxGeometry x="44" y="1014" width="220" height="20" as="geometry"/>
                </mxCell>
                <mxCell id="QeGPy931lr3a5L6l3l3y-6" value="&lt;font style=&quot;font-size: 14px;&quot;&gt;Password:&lt;/font&gt;" style="text;html=1;strokeColor=none;fillColor=none;align=left;verticalAlign=middle;whiteSpace=wrap;rounded=0;" parent="1" vertex="1">
                    <mxGeometry x="44" y="988" width="220" height="30" as="geometry"/>
                </mxCell>
                <mxCell id="QeGPy931lr3a5L6l3l3y-7" value="&lt;font style=&quot;font-size: 14px;&quot;&gt;&lt;i&gt;&lt;u&gt;Forgot Password?&lt;/u&gt;&lt;/i&gt;&lt;/font&gt;" style="text;html=1;strokeColor=none;fillColor=none;align=center;verticalAlign=middle;whiteSpace=wrap;rounded=0;" parent="1" vertex="1">
                    <mxGeometry x="74" y="1088" width="150" height="30" as="geometry"/>
                </mxCell>
                <mxCell id="QeGPy931lr3a5L6l3l3y-8" value="&lt;font style=&quot;font-size: 14px;&quot;&gt;&lt;b&gt;Don't have an account yet?&amp;nbsp;&lt;/b&gt;&lt;/font&gt;" style="text;html=1;strokeColor=none;fillColor=none;align=center;verticalAlign=middle;whiteSpace=wrap;rounded=0;" parent="1" vertex="1">
                    <mxGeometry x="34" y="1123" width="240" height="30" as="geometry"/>
                </mxCell>
                <mxCell id="QeGPy931lr3a5L6l3l3y-9" value="Register" style="strokeWidth=1;shadow=0;dashed=0;align=center;html=1;shape=mxgraph.mockup.buttons.button;strokeColor=#666666;fontColor=#ffffff;mainText=;buttonStyle=round;fontSize=17;fontStyle=1;fillColor=#008cff;whiteSpace=wrap;" parent="1" vertex="1">
                    <mxGeometry x="74" y="1163" width="150" height="40" as="geometry"/>
                </mxCell>
                <mxCell id="QeGPy931lr3a5L6l3l3y-10" value="&lt;h1&gt;&lt;font style=&quot;font-size: 14px;&quot;&gt;&lt;b&gt;LOGIN&lt;/b&gt;&lt;/font&gt;&lt;/h1&gt;" style="text;html=1;strokeColor=none;fillColor=none;align=center;verticalAlign=middle;whiteSpace=wrap;rounded=0;" parent="1" vertex="1">
                    <mxGeometry x="33" y="912" width="240" height="30" as="geometry"/>
                </mxCell>
                <mxCell id="QeGPy931lr3a5L6l3l3y-11" value="Reset Password" style="strokeWidth=1;shadow=0;dashed=0;align=center;html=1;shape=mxgraph.mockup.containers.window;align=left;verticalAlign=top;spacingLeft=8;strokeColor2=#008cff;strokeColor3=#c4c4c4;fontColor=#666666;mainText=;fontSize=17;labelBackgroundColor=none;" parent="1" vertex="1">
                    <mxGeometry x="321" y="1307.5" width="240" height="174" as="geometry"/>
                </mxCell>
                <mxCell id="QeGPy931lr3a5L6l3l3y-12" value="John Doe" style="rounded=0;whiteSpace=wrap;html=1;" parent="1" vertex="1">
                    <mxGeometry x="331" y="1394.5" width="220" height="20" as="geometry"/>
                </mxCell>
                <mxCell id="QeGPy931lr3a5L6l3l3y-13" value="&lt;font style=&quot;font-size: 14px;&quot;&gt;User Email:&amp;nbsp;&lt;/font&gt;" style="text;html=1;strokeColor=none;fillColor=none;align=left;verticalAlign=middle;whiteSpace=wrap;rounded=0;" parent="1" vertex="1">
                    <mxGeometry x="331" y="1369.5" width="220" height="30" as="geometry"/>
                </mxCell>
                <mxCell id="QeGPy931lr3a5L6l3l3y-16" value="Reset Password" style="strokeWidth=1;shadow=0;dashed=0;align=center;html=1;shape=mxgraph.mockup.buttons.button;strokeColor=#666666;fontColor=#ffffff;mainText=;buttonStyle=round;fontSize=17;fontStyle=1;fillColor=#008cff;whiteSpace=wrap;" parent="1" vertex="1">
                    <mxGeometry x="362" y="1425" width="150" height="40" as="geometry"/>
                </mxCell>
                <mxCell id="QeGPy931lr3a5L6l3l3y-17" value="&lt;h1&gt;&lt;font style=&quot;font-size: 14px;&quot;&gt;&lt;b&gt;Reset Password&lt;/b&gt;&lt;/font&gt;&lt;/h1&gt;" style="text;html=1;strokeColor=none;fillColor=none;align=center;verticalAlign=middle;whiteSpace=wrap;rounded=0;" parent="1" vertex="1">
                    <mxGeometry x="320" y="1338.5" width="240" height="30" as="geometry"/>
                </mxCell>
                <mxCell id="QNajEddDkhs3FuIVRpyS-1" value="Client Landing" style="strokeWidth=1;shadow=0;dashed=0;align=center;html=1;shape=mxgraph.mockup.containers.window;align=left;verticalAlign=top;spacingLeft=8;strokeColor2=#008cff;strokeColor3=#c4c4c4;fontColor=#666666;mainText=;fontSize=17;labelBackgroundColor=none;" parent="1" vertex="1">
                    <mxGeometry x="320" y="879" width="240" height="411" as="geometry"/>
                </mxCell>
                <mxCell id="QNajEddDkhs3FuIVRpyS-2" value="" style="verticalLabelPosition=bottom;shadow=0;dashed=0;align=center;html=1;verticalAlign=top;strokeWidth=1;shape=mxgraph.mockup.graphics.simpleIcon;strokeColor=#999999;fontFamily=Helvetica;fontSize=10;fillColor=#FFFFFF;" parent="1" vertex="1">
                    <mxGeometry x="346" y="1146.5" width="190" height="93.5" as="geometry"/>
                </mxCell>
                <mxCell id="QNajEddDkhs3FuIVRpyS-3" value="&lt;h2 style=&quot;box-sizing: border-box; margin-top: 0px; margin-bottom: 0.5rem; font-weight: 500; line-height: 1.2; color: rgb(33, 37, 41); font-family: system-ui, -apple-system, &amp;quot;Segoe UI&amp;quot;, Roboto, &amp;quot;Helvetica Neue&amp;quot;, Arial, &amp;quot;Noto Sans&amp;quot;, &amp;quot;Liberation Sans&amp;quot;, sans-serif, &amp;quot;Apple Color Emoji&amp;quot;, &amp;quot;Segoe UI Emoji&amp;quot;, &amp;quot;Segoe UI Symbol&amp;quot;, &amp;quot;Noto Color Emoji&amp;quot;; background-color: rgb(255, 255, 255);&quot;&gt;&lt;font style=&quot;font-size: 14px;&quot;&gt;What would you like to do ?&lt;/font&gt;&lt;/h2&gt;&lt;h3 style=&quot;box-sizing: border-box; margin-top: 0px; margin-bottom: 15px; line-height: 1.2; color: rgb(33, 37, 41); font-family: system-ui, -apple-system, &amp;quot;Segoe UI&amp;quot;, Roboto, &amp;quot;Helvetica Neue&amp;quot;, Arial, &amp;quot;Noto Sans&amp;quot;, &amp;quot;Liberation Sans&amp;quot;, sans-serif, &amp;quot;Apple Color Emoji&amp;quot;, &amp;quot;Segoe UI Emoji&amp;quot;, &amp;quot;Segoe UI Symbol&amp;quot;, &amp;quot;Noto Color Emoji&amp;quot;; background-color: rgb(255, 255, 255);&quot;&gt;&lt;font style=&quot;font-size: 10px;&quot;&gt;Please select an option from the menu above&lt;/font&gt;&lt;/h3&gt;" style="text;html=1;strokeColor=none;fillColor=none;align=center;verticalAlign=middle;whiteSpace=wrap;rounded=0;shadow=0;fontFamily=Helvetica;fontSize=10;" parent="1" vertex="1">
                    <mxGeometry x="325" y="911" width="230" height="68" as="geometry"/>
                </mxCell>
                <mxCell id="QNajEddDkhs3FuIVRpyS-4" value="New Request" style="strokeWidth=1;shadow=0;dashed=0;align=center;html=1;shape=mxgraph.mockup.buttons.button;strokeColor=#666666;fontColor=#ffffff;mainText=;buttonStyle=round;fontSize=17;fontStyle=1;fillColor=#008cff;whiteSpace=wrap;" parent="1" vertex="1">
                    <mxGeometry x="365" y="1030.5" width="150" height="40" as="geometry"/>
                </mxCell>
                <mxCell id="QNajEddDkhs3FuIVRpyS-5" value="View Requests" style="strokeWidth=1;shadow=0;dashed=0;align=center;html=1;shape=mxgraph.mockup.buttons.button;strokeColor=#666666;fontColor=#ffffff;mainText=;buttonStyle=round;fontSize=17;fontStyle=1;fillColor=#008cff;whiteSpace=wrap;" parent="1" vertex="1">
                    <mxGeometry x="360" y="972" width="150" height="40" as="geometry"/>
                </mxCell>
                <mxCell id="QNajEddDkhs3FuIVRpyS-6" value="&lt;font style=&quot;font-size: 14px;&quot;&gt;&lt;i&gt;marketing image&lt;/i&gt;&lt;/font&gt;" style="text;html=1;strokeColor=none;fillColor=none;align=center;verticalAlign=middle;whiteSpace=wrap;rounded=0;" parent="1" vertex="1">
                    <mxGeometry x="367" y="1166" width="150" height="52" as="geometry"/>
                </mxCell>
                <mxCell id="QNajEddDkhs3FuIVRpyS-7" value="&lt;font style=&quot;font-size: 14px;&quot;&gt;&lt;i&gt;marketing message&lt;/i&gt;&lt;/font&gt;" style="text;html=1;strokeColor=none;fillColor=none;align=center;verticalAlign=middle;whiteSpace=wrap;rounded=0;" parent="1" vertex="1">
                    <mxGeometry x="367" y="1238" width="150" height="52" as="geometry"/>
                </mxCell>
                <mxCell id="lYq7w-tFQBmFcb-JNEUe-2" value="" style="rounded=1;whiteSpace=wrap;html=1;shadow=0;fontFamily=Helvetica;fontSize=10;fillColor=#FFFFFF;strokeColor=#C7C7C7;" parent="1" vertex="1">
                    <mxGeometry x="1166" y="1344" width="219.5" height="65" as="geometry"/>
                </mxCell>
                <mxCell id="lYq7w-tFQBmFcb-JNEUe-3" value="View Request (1/3)" style="strokeWidth=1;shadow=0;dashed=0;align=center;html=1;shape=mxgraph.mockup.containers.window;align=left;verticalAlign=top;spacingLeft=8;strokeColor2=#008cff;strokeColor3=#c4c4c4;fontColor=#666666;mainText=;fontSize=17;labelBackgroundColor=none;" parent="1" vertex="1">
                    <mxGeometry x="1154" y="881" width="240" height="799" as="geometry"/>
                </mxCell>
                <mxCell id="lYq7w-tFQBmFcb-JNEUe-4" value="" style="rounded=1;whiteSpace=wrap;html=1;shadow=0;fontFamily=Helvetica;fontSize=10;fillColor=#FFFFFF;strokeColor=#C7C7C7;" parent="1" vertex="1">
                    <mxGeometry x="1159.5" y="940" width="219.5" height="120" as="geometry"/>
                </mxCell>
                <mxCell id="lYq7w-tFQBmFcb-JNEUe-6" value="&lt;h1&gt;&lt;font style=&quot;font-size: 14px;&quot;&gt;&lt;b&gt;VIEW REQUEST&lt;/b&gt;&lt;/font&gt;&lt;/h1&gt;" style="text;html=1;strokeColor=none;fillColor=none;align=center;verticalAlign=middle;whiteSpace=wrap;rounded=0;" parent="1" vertex="1">
                    <mxGeometry x="1156" y="912" width="240" height="30" as="geometry"/>
                </mxCell>
                <mxCell id="lYq7w-tFQBmFcb-JNEUe-7" value="Oil Change" style="rounded=0;whiteSpace=wrap;html=1;strokeColor=none;" parent="1" vertex="1">
                    <mxGeometry x="1167.5" y="1133.5" width="220" height="20" as="geometry"/>
                </mxCell>
                <mxCell id="lYq7w-tFQBmFcb-JNEUe-8" value="&lt;span style=&quot;font-size: 14px;&quot;&gt;Service Type:&lt;/span&gt;" style="text;html=1;strokeColor=none;fillColor=none;align=left;verticalAlign=middle;whiteSpace=wrap;rounded=0;" parent="1" vertex="1">
                    <mxGeometry x="1167.5" y="1108.5" width="220" height="30" as="geometry"/>
                </mxCell>
                <mxCell id="lYq7w-tFQBmFcb-JNEUe-9" value="Lourens" style="rounded=0;whiteSpace=wrap;html=1;strokeColor=none;" parent="1" vertex="1">
                    <mxGeometry x="1167.5" y="1178.5" width="220" height="20" as="geometry"/>
                </mxCell>
                <mxCell id="lYq7w-tFQBmFcb-JNEUe-10" value="&lt;span style=&quot;font-size: 14px;&quot;&gt;Technician:&lt;/span&gt;" style="text;html=1;strokeColor=none;fillColor=none;align=left;verticalAlign=middle;whiteSpace=wrap;rounded=0;" parent="1" vertex="1">
                    <mxGeometry x="1167.5" y="1150.5" width="220" height="30" as="geometry"/>
                </mxCell>
                <mxCell id="lYq7w-tFQBmFcb-JNEUe-11" value="Macquire" style="rounded=0;whiteSpace=wrap;html=1;strokeColor=none;" parent="1" vertex="1">
                    <mxGeometry x="1167.5" y="1223.5" width="220" height="20" as="geometry"/>
                </mxCell>
                <mxCell id="lYq7w-tFQBmFcb-JNEUe-12" value="&lt;span style=&quot;font-size: 14px;&quot;&gt;Equipment:&lt;/span&gt;" style="text;html=1;strokeColor=none;fillColor=none;align=left;verticalAlign=middle;whiteSpace=wrap;rounded=0;" parent="1" vertex="1">
                    <mxGeometry x="1167.5" y="1198.5" width="220" height="30" as="geometry"/>
                </mxCell>
                <mxCell id="lYq7w-tFQBmFcb-JNEUe-13" value="&lt;span style=&quot;font-size: 10px;&quot;&gt;Blender not blending&lt;/span&gt;" style="rounded=0;whiteSpace=wrap;html=1;strokeColor=none;" parent="1" vertex="1">
                    <mxGeometry x="1167.5" y="1311.5" width="220" height="45" as="geometry"/>
                </mxCell>
                <mxCell id="lYq7w-tFQBmFcb-JNEUe-14" value="&lt;span style=&quot;font-size: 14px;&quot;&gt;Description&lt;/span&gt;" style="text;html=1;strokeColor=none;fillColor=none;align=left;verticalAlign=middle;whiteSpace=wrap;rounded=0;" parent="1" vertex="1">
                    <mxGeometry x="1167.5" y="1293.5" width="220" height="30" as="geometry"/>
                </mxCell>
                <mxCell id="lYq7w-tFQBmFcb-JNEUe-15" value="&lt;font style=&quot;font-size: 14px;&quot;&gt;&lt;b&gt;Would you like to leave us a note?&lt;/b&gt;&lt;/font&gt;" style="text;html=1;strokeColor=none;fillColor=none;align=center;verticalAlign=middle;whiteSpace=wrap;rounded=0;" parent="1" vertex="1">
                    <mxGeometry x="1156.5" y="1432" width="240" height="30" as="geometry"/>
                </mxCell>
                <mxCell id="lYq7w-tFQBmFcb-JNEUe-16" value="RO2410-006" style="rounded=0;whiteSpace=wrap;html=1;strokeColor=none;" parent="1" vertex="1">
                    <mxGeometry x="1167.5" y="1089" width="220" height="20" as="geometry"/>
                </mxCell>
                <mxCell id="lYq7w-tFQBmFcb-JNEUe-17" value="&lt;span style=&quot;font-size: 14px;&quot;&gt;Request Number&lt;/span&gt;" style="text;html=1;strokeColor=none;fillColor=none;align=left;verticalAlign=middle;whiteSpace=wrap;rounded=0;" parent="1" vertex="1">
                    <mxGeometry x="1167.5" y="1064" width="220" height="30" as="geometry"/>
                </mxCell>
                <mxCell id="lYq7w-tFQBmFcb-JNEUe-18" value="Only for 'Service Call'&lt;br&gt;&amp;nbsp;Status" style="text;html=1;strokeColor=none;fillColor=#FFFFFF;align=center;verticalAlign=middle;whiteSpace=wrap;rounded=0;fontFamily=Helvetica;fontSize=10;" parent="1" vertex="1">
                    <mxGeometry x="1159.5" y="953" width="45" height="30" as="geometry"/>
                </mxCell>
                <mxCell id="lYq7w-tFQBmFcb-JNEUe-19" value="New Note" style="strokeWidth=1;shadow=0;dashed=0;align=center;html=1;shape=mxgraph.mockup.buttons.button;strokeColor=#666666;fontColor=#ffffff;mainText=;buttonStyle=round;fontSize=17;fontStyle=1;fillColor=#008cff;whiteSpace=wrap;" parent="1" vertex="1">
                    <mxGeometry x="1201.5" y="1461" width="150" height="40" as="geometry"/>
                </mxCell>
                <mxCell id="lYq7w-tFQBmFcb-JNEUe-20" value="Cancel Request" style="strokeWidth=1;shadow=0;dashed=0;align=center;html=1;shape=mxgraph.mockup.buttons.button;strokeColor=#666666;fontColor=#ffffff;mainText=;buttonStyle=round;fontSize=17;fontStyle=1;fillColor=#008cff;whiteSpace=wrap;" parent="1" vertex="1">
                    <mxGeometry x="1202.5" y="948" width="150" height="40" as="geometry"/>
                </mxCell>
                <mxCell id="lYq7w-tFQBmFcb-JNEUe-21" value="" style="rounded=0;whiteSpace=wrap;html=1;fontFamily=Helvetica;fontSize=10;fillColor=none;" parent="1" vertex="1">
                    <mxGeometry x="1426" y="1015.5" width="224" height="214.5" as="geometry"/>
                </mxCell>
                <mxCell id="lYq7w-tFQBmFcb-JNEUe-22" value="" style="rounded=0;whiteSpace=wrap;html=1;fontFamily=Helvetica;fontSize=10;fillColor=none;" parent="1" vertex="1">
                    <mxGeometry x="1701" y="1017" width="224" height="94" as="geometry"/>
                </mxCell>
                <mxCell id="lYq7w-tFQBmFcb-JNEUe-23" value="Part Detail 1" style="rounded=0;whiteSpace=wrap;html=1;strokeColor=none;" parent="1" vertex="1">
                    <mxGeometry x="1703" y="1038" width="220" height="20" as="geometry"/>
                </mxCell>
                <mxCell id="lYq7w-tFQBmFcb-JNEUe-24" value="&lt;span style=&quot;font-size: 14px;&quot;&gt;Parts&lt;/span&gt;" style="text;html=1;strokeColor=none;fillColor=none;align=left;verticalAlign=middle;whiteSpace=wrap;rounded=0;" parent="1" vertex="1">
                    <mxGeometry x="1703" y="1013" width="220" height="30" as="geometry"/>
                </mxCell>
                <mxCell id="lYq7w-tFQBmFcb-JNEUe-26" value="&lt;h1&gt;&lt;span style=&quot;font-size: 14px;&quot;&gt;Labour&lt;/span&gt;&lt;/h1&gt;" style="text;html=1;strokeColor=none;fillColor=#E6E6E6;align=left;verticalAlign=middle;whiteSpace=wrap;rounded=0;" parent="1" vertex="1">
                    <mxGeometry x="1427" y="913.5" width="228" height="30" as="geometry"/>
                </mxCell>
                <mxCell id="lYq7w-tFQBmFcb-JNEUe-27" value="Gus" style="rounded=0;whiteSpace=wrap;html=1;strokeColor=none;" parent="1" vertex="1">
                    <mxGeometry x="1428" y="1043" width="220" height="20" as="geometry"/>
                </mxCell>
                <mxCell id="lYq7w-tFQBmFcb-JNEUe-28" value="&lt;span style=&quot;font-size: 14px;&quot;&gt;Technician:&lt;/span&gt;" style="text;html=1;strokeColor=none;fillColor=none;align=left;verticalAlign=middle;whiteSpace=wrap;rounded=0;" parent="1" vertex="1">
                    <mxGeometry x="1428" y="1008" width="220" height="40" as="geometry"/>
                </mxCell>
                <mxCell id="lYq7w-tFQBmFcb-JNEUe-29" value="Travel" style="rounded=0;whiteSpace=wrap;html=1;strokeColor=#000000;" parent="1" vertex="1">
                    <mxGeometry x="2770" y="1061" width="220" height="20" as="geometry"/>
                </mxCell>
                <mxCell id="lYq7w-tFQBmFcb-JNEUe-30" value="&lt;span style=&quot;font-size: 14px;&quot;&gt;Hours Type&lt;/span&gt;" style="text;html=1;strokeColor=none;fillColor=none;align=left;verticalAlign=middle;whiteSpace=wrap;rounded=0;" parent="1" vertex="1">
                    <mxGeometry x="2770" y="1032" width="220" height="30" as="geometry"/>
                </mxCell>
                <mxCell id="lYq7w-tFQBmFcb-JNEUe-31" value="&lt;span style=&quot;font-size: 14px;&quot;&gt;Detail:&lt;/span&gt;" style="text;html=1;strokeColor=none;fillColor=none;align=left;verticalAlign=middle;whiteSpace=wrap;rounded=0;" parent="1" vertex="1">
                    <mxGeometry x="1428" y="1073" width="220" height="30" as="geometry"/>
                </mxCell>
                <mxCell id="lYq7w-tFQBmFcb-JNEUe-32" value="fixing stuff" style="rounded=0;whiteSpace=wrap;html=1;strokeColor=none;" parent="1" vertex="1">
                    <mxGeometry x="1428.5" y="1098" width="220" height="20" as="geometry"/>
                </mxCell>
                <mxCell id="lYq7w-tFQBmFcb-JNEUe-33" value="" style="rounded=0;whiteSpace=wrap;html=1;fontFamily=Helvetica;fontSize=10;fillColor=none;" parent="1" vertex="1">
                    <mxGeometry x="1428" y="1280" width="224" height="210" as="geometry"/>
                </mxCell>
                <mxCell id="lYq7w-tFQBmFcb-JNEUe-34" value="Gus" style="rounded=0;whiteSpace=wrap;html=1;shadow=0;strokeColor=none;" parent="1" vertex="1">
                    <mxGeometry x="1431" y="1307.5" width="220" height="20" as="geometry"/>
                </mxCell>
                <mxCell id="lYq7w-tFQBmFcb-JNEUe-35" value="&lt;span style=&quot;font-size: 14px;&quot;&gt;Technician:&lt;/span&gt;" style="text;html=1;strokeColor=none;fillColor=none;align=left;verticalAlign=middle;whiteSpace=wrap;rounded=0;" parent="1" vertex="1">
                    <mxGeometry x="1431" y="1282.5" width="220" height="30" as="geometry"/>
                </mxCell>
                <mxCell id="lYq7w-tFQBmFcb-JNEUe-36" value="7" style="rounded=0;whiteSpace=wrap;html=1;strokeColor=none;" parent="1" vertex="1">
                    <mxGeometry x="1430" y="1454.5" width="220" height="20" as="geometry"/>
                </mxCell>
                <mxCell id="lYq7w-tFQBmFcb-JNEUe-37" value="&lt;span style=&quot;font-size: 14px;&quot;&gt;Hours&lt;/span&gt;" style="text;html=1;strokeColor=none;fillColor=none;align=left;verticalAlign=middle;whiteSpace=wrap;rounded=0;" parent="1" vertex="1">
                    <mxGeometry x="1432" y="1432" width="220" height="30" as="geometry"/>
                </mxCell>
                <mxCell id="lYq7w-tFQBmFcb-JNEUe-38" value="&lt;span style=&quot;font-size: 14px;&quot;&gt;Detail:&lt;/span&gt;" style="text;html=1;strokeColor=none;fillColor=none;align=left;verticalAlign=middle;whiteSpace=wrap;rounded=0;" parent="1" vertex="1">
                    <mxGeometry x="1431" y="1337.5" width="220" height="30" as="geometry"/>
                </mxCell>
                <mxCell id="lYq7w-tFQBmFcb-JNEUe-39" value="installing stuff" style="rounded=0;whiteSpace=wrap;html=1;strokeColor=none;" parent="1" vertex="1">
                    <mxGeometry x="1431.5" y="1362.5" width="220" height="20" as="geometry"/>
                </mxCell>
                <mxCell id="lYq7w-tFQBmFcb-JNEUe-40" value="Only for 'Request Approval'&lt;br&gt;&amp;nbsp;Status" style="text;html=1;strokeColor=none;fillColor=#FFFFFF;align=center;verticalAlign=middle;whiteSpace=wrap;rounded=0;fontFamily=Helvetica;fontSize=10;" parent="1" vertex="1">
                    <mxGeometry x="1156.5" y="1010" width="45" height="30" as="geometry"/>
                </mxCell>
                <mxCell id="lYq7w-tFQBmFcb-JNEUe-41" value="Approve Request" style="strokeWidth=1;shadow=0;dashed=0;align=center;html=1;shape=mxgraph.mockup.buttons.button;strokeColor=#666666;fontColor=#ffffff;mainText=;buttonStyle=round;fontSize=17;fontStyle=1;fillColor=#008cff;whiteSpace=wrap;" parent="1" vertex="1">
                    <mxGeometry x="1202.5" y="1002" width="150" height="40" as="geometry"/>
                </mxCell>
                <mxCell id="lYq7w-tFQBmFcb-JNEUe-42" value="Only for Technicians" style="text;html=1;strokeColor=none;fillColor=#FFFFFF;align=center;verticalAlign=middle;whiteSpace=wrap;rounded=0;fontFamily=Helvetica;fontSize=10;rotation=-90;" parent="1" vertex="1">
                    <mxGeometry x="1166" y="1363.5" width="45" height="30" as="geometry"/>
                </mxCell>
                <mxCell id="lYq7w-tFQBmFcb-JNEUe-43" value="Edit Request" style="strokeWidth=1;shadow=0;dashed=0;align=center;html=1;shape=mxgraph.mockup.buttons.button;strokeColor=#666666;fontColor=#ffffff;mainText=;buttonStyle=round;fontSize=17;fontStyle=1;fillColor=#008cff;whiteSpace=wrap;" parent="1" vertex="1">
                    <mxGeometry x="1209" y="1358.5" width="150" height="40" as="geometry"/>
                </mxCell>
                <mxCell id="lYq7w-tFQBmFcb-JNEUe-44" value="&lt;span style=&quot;font-size: 14px;&quot;&gt;Date&lt;/span&gt;" style="text;html=1;strokeColor=none;fillColor=none;align=left;verticalAlign=middle;whiteSpace=wrap;rounded=0;" parent="1" vertex="1">
                    <mxGeometry x="1166.25" y="1512" width="54.5" height="30" as="geometry"/>
                </mxCell>
                <mxCell id="lYq7w-tFQBmFcb-JNEUe-45" value="&lt;span style=&quot;font-size: 14px;&quot;&gt;Name&lt;/span&gt;" style="text;html=1;strokeColor=none;fillColor=none;align=left;verticalAlign=middle;whiteSpace=wrap;rounded=0;" parent="1" vertex="1">
                    <mxGeometry x="1310.75" y="1515" width="54.5" height="23" as="geometry"/>
                </mxCell>
                <mxCell id="lYq7w-tFQBmFcb-JNEUe-46" value="&lt;span style=&quot;font-size: 10px;&quot;&gt;Note.................................&lt;/span&gt;" style="rounded=0;whiteSpace=wrap;html=1;" parent="1" vertex="1">
                    <mxGeometry x="1166.25" y="1538" width="220" height="45" as="geometry"/>
                </mxCell>
                <mxCell id="lYq7w-tFQBmFcb-JNEUe-47" value="&lt;span style=&quot;font-size: 10px;&quot;&gt;......&amp;nbsp; continued&amp;nbsp; .....&lt;/span&gt;" style="rounded=0;whiteSpace=wrap;html=1;strokeColor=none;" parent="1" vertex="1">
                    <mxGeometry x="1164" y="1641.25" width="220" height="25.5" as="geometry"/>
                </mxCell>
                <mxCell id="lYq7w-tFQBmFcb-JNEUe-48" value="edit" style="strokeWidth=1;shadow=0;dashed=0;align=center;html=1;shape=mxgraph.mockup.buttons.button;strokeColor=#666666;fontColor=#ffffff;mainText=;buttonStyle=round;fontSize=17;fontStyle=1;fillColor=#008cff;whiteSpace=wrap;" parent="1" vertex="1">
                    <mxGeometry x="1296.25" y="1592" width="90" height="38" as="geometry"/>
                </mxCell>
                <mxCell id="lYq7w-tFQBmFcb-JNEUe-49" value="&lt;h1&gt;&lt;span style=&quot;font-size: 14px;&quot;&gt;Notes&lt;/span&gt;&lt;/h1&gt;" style="text;html=1;strokeColor=none;fillColor=#E6E6E6;align=left;verticalAlign=middle;whiteSpace=wrap;rounded=0;" parent="1" vertex="1">
                    <mxGeometry x="1160" y="1405" width="228" height="30" as="geometry"/>
                </mxCell>
                <mxCell id="lYq7w-tFQBmFcb-JNEUe-50" value="Part Detail 2" style="rounded=0;whiteSpace=wrap;html=1;strokeColor=none;" parent="1" vertex="1">
                    <mxGeometry x="1702" y="1064.5" width="220" height="20" as="geometry"/>
                </mxCell>
                <mxCell id="lYq7w-tFQBmFcb-JNEUe-51" value="Edit Only if your note" style="text;html=1;strokeColor=none;fillColor=#FFFFFF;align=center;verticalAlign=middle;whiteSpace=wrap;rounded=0;fontFamily=Helvetica;fontSize=10;" parent="1" vertex="1">
                    <mxGeometry x="1237.5" y="1597" width="45" height="30" as="geometry"/>
                </mxCell>
                <mxCell id="cqPixatFt5K4IzHOwbGY-1" value="Work History" style="strokeWidth=1;shadow=0;dashed=0;align=center;html=1;shape=mxgraph.mockup.containers.window;align=left;verticalAlign=top;spacingLeft=8;strokeColor2=#008cff;strokeColor3=#c4c4c4;fontColor=#666666;mainText=;fontSize=17;labelBackgroundColor=none;" parent="1" vertex="1">
                    <mxGeometry x="590" y="879" width="240" height="460" as="geometry"/>
                </mxCell>
                <mxCell id="cqPixatFt5K4IzHOwbGY-2" value="&lt;h1&gt;&lt;font style=&quot;font-size: 14px;&quot;&gt;&lt;b&gt;WORK HISTORY&lt;/b&gt;&lt;/font&gt;&lt;/h1&gt;" style="text;html=1;strokeColor=none;fillColor=none;align=center;verticalAlign=middle;whiteSpace=wrap;rounded=0;" parent="1" vertex="1">
                    <mxGeometry x="590" y="910" width="240" height="30" as="geometry"/>
                </mxCell>
                <mxCell id="cqPixatFt5K4IzHOwbGY-3" value="" style="shape=table;html=1;whiteSpace=wrap;startSize=0;container=1;collapsible=0;childLayout=tableLayout;fontSize=14;" parent="1" vertex="1">
                    <mxGeometry x="600" y="977" width="220" height="153" as="geometry"/>
                </mxCell>
                <mxCell id="cqPixatFt5K4IzHOwbGY-4" value="" style="shape=tableRow;horizontal=0;startSize=0;swimlaneHead=0;swimlaneBody=0;top=0;left=0;bottom=0;right=0;collapsible=0;dropTarget=0;fillColor=none;points=[[0,0.5],[1,0.5]];portConstraint=eastwest;fontSize=14;" parent="cqPixatFt5K4IzHOwbGY-3" vertex="1">
                    <mxGeometry width="220" height="51" as="geometry"/>
                </mxCell>
                <mxCell id="cqPixatFt5K4IzHOwbGY-5" value="&lt;font style=&quot;font-size: 10px;&quot;&gt;2024/10/11&lt;/font&gt;" style="shape=partialRectangle;html=1;whiteSpace=wrap;connectable=0;fillColor=none;top=0;left=0;bottom=0;right=0;overflow=hidden;fontSize=14;" parent="cqPixatFt5K4IzHOwbGY-4" vertex="1">
                    <mxGeometry width="60" height="51" as="geometry">
                        <mxRectangle width="60" height="51" as="alternateBounds"/>
                    </mxGeometry>
                </mxCell>
                <mxCell id="cqPixatFt5K4IzHOwbGY-6" value="&lt;span style=&quot;color: rgb(33, 37, 41); background-color: rgb(255, 255, 255);&quot;&gt;&lt;font style=&quot;font-size: 10px;&quot;&gt;Dryer not drying&lt;/font&gt;&lt;/span&gt;" style="shape=partialRectangle;html=1;whiteSpace=wrap;connectable=0;fillColor=none;top=0;left=0;bottom=0;right=0;overflow=hidden;fontSize=14;" parent="cqPixatFt5K4IzHOwbGY-4" vertex="1">
                    <mxGeometry x="60" width="87" height="51" as="geometry">
                        <mxRectangle width="87" height="51" as="alternateBounds"/>
                    </mxGeometry>
                </mxCell>
                <mxCell id="cqPixatFt5K4IzHOwbGY-7" value="" style="shape=partialRectangle;html=1;whiteSpace=wrap;connectable=0;fillColor=none;top=0;left=0;bottom=0;right=0;overflow=hidden;fontSize=14;" parent="cqPixatFt5K4IzHOwbGY-4" vertex="1">
                    <mxGeometry x="147" width="73" height="51" as="geometry">
                        <mxRectangle width="73" height="51" as="alternateBounds"/>
                    </mxGeometry>
                </mxCell>
                <mxCell id="cqPixatFt5K4IzHOwbGY-8" value="" style="shape=tableRow;horizontal=0;startSize=0;swimlaneHead=0;swimlaneBody=0;top=0;left=0;bottom=0;right=0;collapsible=0;dropTarget=0;fillColor=none;points=[[0,0.5],[1,0.5]];portConstraint=eastwest;fontSize=14;" parent="cqPixatFt5K4IzHOwbGY-3" vertex="1">
                    <mxGeometry y="51" width="220" height="51" as="geometry"/>
                </mxCell>
                <mxCell id="cqPixatFt5K4IzHOwbGY-9" value="&lt;span style=&quot;font-size: 10px;&quot;&gt;2024/10/08&lt;/span&gt;" style="shape=partialRectangle;html=1;whiteSpace=wrap;connectable=0;fillColor=none;top=0;left=0;bottom=0;right=0;overflow=hidden;fontSize=14;" parent="cqPixatFt5K4IzHOwbGY-8" vertex="1">
                    <mxGeometry width="60" height="51" as="geometry">
                        <mxRectangle width="60" height="51" as="alternateBounds"/>
                    </mxGeometry>
                </mxCell>
                <mxCell id="cqPixatFt5K4IzHOwbGY-10" value="&lt;font style=&quot;font-size: 10px;&quot;&gt;Blender not blending&lt;/font&gt;" style="shape=partialRectangle;html=1;whiteSpace=wrap;connectable=0;fillColor=none;top=0;left=0;bottom=0;right=0;overflow=hidden;fontSize=14;" parent="cqPixatFt5K4IzHOwbGY-8" vertex="1">
                    <mxGeometry x="60" width="87" height="51" as="geometry">
                        <mxRectangle width="87" height="51" as="alternateBounds"/>
                    </mxGeometry>
                </mxCell>
                <mxCell id="cqPixatFt5K4IzHOwbGY-11" value="" style="shape=partialRectangle;html=1;whiteSpace=wrap;connectable=0;fillColor=none;top=0;left=0;bottom=0;right=0;overflow=hidden;fontSize=14;" parent="cqPixatFt5K4IzHOwbGY-8" vertex="1">
                    <mxGeometry x="147" width="73" height="51" as="geometry">
                        <mxRectangle width="73" height="51" as="alternateBounds"/>
                    </mxGeometry>
                </mxCell>
                <mxCell id="cqPixatFt5K4IzHOwbGY-12" value="" style="shape=tableRow;horizontal=0;startSize=0;swimlaneHead=0;swimlaneBody=0;top=0;left=0;bottom=0;right=0;collapsible=0;dropTarget=0;fillColor=none;points=[[0,0.5],[1,0.5]];portConstraint=eastwest;fontSize=14;" parent="cqPixatFt5K4IzHOwbGY-3" vertex="1">
                    <mxGeometry y="102" width="220" height="51" as="geometry"/>
                </mxCell>
                <mxCell id="cqPixatFt5K4IzHOwbGY-13" value="&lt;span style=&quot;font-size: 10px;&quot;&gt;2024/10/01&lt;/span&gt;" style="shape=partialRectangle;html=1;whiteSpace=wrap;connectable=0;fillColor=none;top=0;left=0;bottom=0;right=0;overflow=hidden;fontSize=14;" parent="cqPixatFt5K4IzHOwbGY-12" vertex="1">
                    <mxGeometry width="60" height="51" as="geometry">
                        <mxRectangle width="60" height="51" as="alternateBounds"/>
                    </mxGeometry>
                </mxCell>
                <mxCell id="cqPixatFt5K4IzHOwbGY-14" value="&lt;font style=&quot;font-size: 10px;&quot;&gt;Moulder not moulding&lt;/font&gt;" style="shape=partialRectangle;html=1;whiteSpace=wrap;connectable=0;fillColor=none;top=0;left=0;bottom=0;right=0;overflow=hidden;fontSize=14;" parent="cqPixatFt5K4IzHOwbGY-12" vertex="1">
                    <mxGeometry x="60" width="87" height="51" as="geometry">
                        <mxRectangle width="87" height="51" as="alternateBounds"/>
                    </mxGeometry>
                </mxCell>
                <mxCell id="cqPixatFt5K4IzHOwbGY-15" value="" style="shape=partialRectangle;html=1;whiteSpace=wrap;connectable=0;fillColor=none;top=0;left=0;bottom=0;right=0;overflow=hidden;pointerEvents=1;fontSize=14;" parent="cqPixatFt5K4IzHOwbGY-12" vertex="1">
                    <mxGeometry x="147" width="73" height="51" as="geometry">
                        <mxRectangle width="73" height="51" as="alternateBounds"/>
                    </mxGeometry>
                </mxCell>
                <mxCell id="cqPixatFt5K4IzHOwbGY-16" value="&lt;font style=&quot;font-size: 14px;&quot;&gt;Date&lt;/font&gt;" style="text;html=1;strokeColor=none;fillColor=none;align=left;verticalAlign=middle;whiteSpace=wrap;rounded=0;fontStyle=1" parent="1" vertex="1">
                    <mxGeometry x="600" y="954" width="50" height="30" as="geometry"/>
                </mxCell>
                <mxCell id="cqPixatFt5K4IzHOwbGY-17" value="&lt;font style=&quot;font-size: 14px;&quot;&gt;Description&lt;/font&gt;" style="text;html=1;strokeColor=none;fillColor=none;align=left;verticalAlign=middle;whiteSpace=wrap;rounded=0;fontStyle=1" parent="1" vertex="1">
                    <mxGeometry x="660" y="954" width="50" height="30" as="geometry"/>
                </mxCell>
                <mxCell id="cqPixatFt5K4IzHOwbGY-18" value="&lt;font style=&quot;font-size: 14px;&quot;&gt;Status&lt;/font&gt;" style="text;html=1;strokeColor=none;fillColor=none;align=left;verticalAlign=middle;whiteSpace=wrap;rounded=0;fontStyle=1" parent="1" vertex="1">
                    <mxGeometry x="747" y="954" width="50" height="30" as="geometry"/>
                </mxCell>
                <mxCell id="cqPixatFt5K4IzHOwbGY-19" value="&lt;font style=&quot;font-size: 10px;&quot;&gt;Works Order&lt;/font&gt;" style="strokeWidth=1;shadow=0;dashed=0;align=center;html=1;shape=mxgraph.mockup.buttons.button;strokeColor=#666666;fontColor=#ffffff;mainText=;buttonStyle=round;fontSize=17;fontStyle=1;fillColor=#008cff;whiteSpace=wrap;" parent="1" vertex="1">
                    <mxGeometry x="754" y="982" width="60" height="41" as="geometry"/>
                </mxCell>
                <mxCell id="cqPixatFt5K4IzHOwbGY-20" value="&lt;font style=&quot;font-size: 10px;&quot;&gt;Service &lt;br&gt;Call&lt;/font&gt;" style="strokeWidth=1;shadow=0;dashed=0;align=center;html=1;shape=mxgraph.mockup.buttons.button;strokeColor=#666666;fontColor=#ffffff;mainText=;buttonStyle=round;fontSize=17;fontStyle=1;fillColor=#008cff;whiteSpace=wrap;" parent="1" vertex="1">
                    <mxGeometry x="754" y="1033" width="60" height="41" as="geometry"/>
                </mxCell>
                <mxCell id="cqPixatFt5K4IzHOwbGY-21" value="&lt;span style=&quot;font-size: 10px;&quot;&gt;Invoice&lt;/span&gt;" style="strokeWidth=1;shadow=0;dashed=0;align=center;html=1;shape=mxgraph.mockup.buttons.button;strokeColor=#666666;fontColor=#ffffff;mainText=;buttonStyle=round;fontSize=17;fontStyle=1;fillColor=#008cff;whiteSpace=wrap;" parent="1" vertex="1">
                    <mxGeometry x="753" y="1084" width="60" height="41" as="geometry"/>
                </mxCell>
                <mxCell id="cqPixatFt5K4IzHOwbGY-22" value="New Request" style="strokeWidth=1;shadow=0;dashed=0;align=center;html=1;shape=mxgraph.mockup.buttons.button;strokeColor=#666666;fontColor=#ffffff;mainText=;buttonStyle=round;fontSize=17;fontStyle=1;fillColor=#008cff;whiteSpace=wrap;" parent="1" vertex="1">
                    <mxGeometry x="635" y="1146" width="150" height="40" as="geometry"/>
                </mxCell>
                <mxCell id="55RVO9zuL2QJUInykwMi-13" style="edgeStyle=none;html=1;fontSize=10;exitX=0.25;exitY=0;exitDx=0;exitDy=0;" parent="1" source="54" target="55RVO9zuL2QJUInykwMi-2" edge="1">
                    <mxGeometry relative="1" as="geometry">
                        <mxPoint x="90.68586387434561" y="501.6858638743456" as="sourcePoint"/>
                    </mxGeometry>
                </mxCell>
                <mxCell id="43" style="edgeStyle=none;html=1;exitX=0.5;exitY=0;exitDx=0;exitDy=0;entryX=0.5;entryY=1;entryDx=0;entryDy=0;" parent="1" source="55RVO9zuL2QJUInykwMi-2" target="42" edge="1">
                    <mxGeometry relative="1" as="geometry"/>
                </mxCell>
                <mxCell id="55RVO9zuL2QJUInykwMi-2" value="REGISTER" style="rounded=1;whiteSpace=wrap;html=1;fillColor=#CCFFFF;" parent="1" vertex="1">
                    <mxGeometry x="165" y="385" width="160" height="80" as="geometry"/>
                </mxCell>
                <mxCell id="55RVO9zuL2QJUInykwMi-44" style="edgeStyle=none;html=1;fontSize=10;" parent="1" source="55RVO9zuL2QJUInykwMi-41" target="55RVO9zuL2QJUInykwMi-42" edge="1">
                    <mxGeometry relative="1" as="geometry"/>
                </mxCell>
                <mxCell id="55RVO9zuL2QJUInykwMi-41" value="Edit Request" style="rounded=0;whiteSpace=wrap;html=1;fillColor=#E6E6E6;" parent="1" vertex="1">
                    <mxGeometry x="1431" y="593" width="120" height="40" as="geometry"/>
                </mxCell>
                <mxCell id="55RVO9zuL2QJUInykwMi-45" style="edgeStyle=none;html=1;fontSize=10;exitX=0.5;exitY=1;exitDx=0;exitDy=0;entryX=0.75;entryY=0;entryDx=0;entryDy=0;" parent="1" source="55RVO9zuL2QJUInykwMi-42" target="CNkwPxVMg8bD5Nznt0NU-38" edge="1">
                    <mxGeometry relative="1" as="geometry">
                        <mxPoint x="1330" y="730" as="targetPoint"/>
                    </mxGeometry>
                </mxCell>
                <mxCell id="55RVO9zuL2QJUInykwMi-42" value="Update" style="rounded=0;whiteSpace=wrap;html=1;fillColor=#FFFFCC;" parent="1" vertex="1">
                    <mxGeometry x="1376" y="647" width="120" height="39" as="geometry"/>
                </mxCell>
                <mxCell id="PFeHFat0qIq5NRPBdQmR-1" value="New Note" style="strokeWidth=1;shadow=0;dashed=0;align=center;html=1;shape=mxgraph.mockup.containers.window;align=left;verticalAlign=top;spacingLeft=8;strokeColor2=#008cff;strokeColor3=#c4c4c4;fontColor=#666666;mainText=;fontSize=17;labelBackgroundColor=none;" parent="1" vertex="1">
                    <mxGeometry x="1942" y="881" width="240" height="250" as="geometry"/>
                </mxCell>
                <mxCell id="PFeHFat0qIq5NRPBdQmR-2" value="&lt;h1&gt;&lt;font style=&quot;font-size: 14px;&quot;&gt;&lt;b&gt;WORK ORDER NOTES&lt;/b&gt;&lt;/font&gt;&lt;/h1&gt;" style="text;html=1;strokeColor=none;fillColor=none;align=center;verticalAlign=middle;whiteSpace=wrap;rounded=0;" parent="1" vertex="1">
                    <mxGeometry x="1942" y="912" width="240" height="30" as="geometry"/>
                </mxCell>
                <mxCell id="PFeHFat0qIq5NRPBdQmR-3" value="Add Note" style="strokeWidth=1;shadow=0;dashed=0;align=center;html=1;shape=mxgraph.mockup.buttons.button;strokeColor=#666666;fontColor=#ffffff;mainText=;buttonStyle=round;fontSize=17;fontStyle=1;fillColor=#008cff;whiteSpace=wrap;" parent="1" vertex="1">
                    <mxGeometry x="1987" y="1019" width="150" height="40" as="geometry"/>
                </mxCell>
                <mxCell id="PFeHFat0qIq5NRPBdQmR-4" value="&lt;span style=&quot;font-size: 10px;&quot;&gt;Blender not blending&lt;/span&gt;" style="rounded=0;whiteSpace=wrap;html=1;" parent="1" vertex="1">
                    <mxGeometry x="1952" y="963" width="220" height="45" as="geometry"/>
                </mxCell>
                <mxCell id="PFeHFat0qIq5NRPBdQmR-5" value="&lt;span style=&quot;font-size: 14px;&quot;&gt;New Note&lt;/span&gt;" style="text;html=1;strokeColor=none;fillColor=none;align=left;verticalAlign=middle;whiteSpace=wrap;rounded=0;" parent="1" vertex="1">
                    <mxGeometry x="1952" y="937" width="220" height="30" as="geometry"/>
                </mxCell>
                <mxCell id="PFeHFat0qIq5NRPBdQmR-6" value="Edit Note" style="strokeWidth=1;shadow=0;dashed=0;align=center;html=1;shape=mxgraph.mockup.containers.window;align=left;verticalAlign=top;spacingLeft=8;strokeColor2=#008cff;strokeColor3=#c4c4c4;fontColor=#666666;mainText=;fontSize=17;labelBackgroundColor=none;" parent="1" vertex="1">
                    <mxGeometry x="1942" y="1156.5" width="240" height="251" as="geometry"/>
                </mxCell>
                <mxCell id="PFeHFat0qIq5NRPBdQmR-7" value="&lt;span style=&quot;font-size: 14px;&quot;&gt;Date&lt;/span&gt;" style="text;html=1;strokeColor=none;fillColor=none;align=left;verticalAlign=middle;whiteSpace=wrap;rounded=0;" parent="1" vertex="1">
                    <mxGeometry x="1947.5" y="1198.5" width="54.5" height="30" as="geometry"/>
                </mxCell>
                <mxCell id="PFeHFat0qIq5NRPBdQmR-8" value="&lt;span style=&quot;font-size: 14px;&quot;&gt;Name&lt;/span&gt;" style="text;html=1;strokeColor=none;fillColor=none;align=left;verticalAlign=middle;whiteSpace=wrap;rounded=0;" parent="1" vertex="1">
                    <mxGeometry x="2092" y="1201.5" width="54.5" height="23" as="geometry"/>
                </mxCell>
                <mxCell id="PFeHFat0qIq5NRPBdQmR-9" value="&lt;span style=&quot;font-size: 10px;&quot;&gt;Note.................................&lt;/span&gt;" style="rounded=0;whiteSpace=wrap;html=1;" parent="1" vertex="1">
                    <mxGeometry x="1952" y="1228.5" width="220" height="45" as="geometry"/>
                </mxCell>
                <mxCell id="PFeHFat0qIq5NRPBdQmR-11" style="edgeStyle=none;html=1;fontSize=10;entryX=0.5;entryY=0;entryDx=0;entryDy=0;" parent="1" source="PFeHFat0qIq5NRPBdQmR-12" target="PFeHFat0qIq5NRPBdQmR-37" edge="1">
                    <mxGeometry relative="1" as="geometry">
                        <mxPoint x="1994.063492063492" y="559" as="targetPoint"/>
                    </mxGeometry>
                </mxCell>
                <mxCell id="PFeHFat0qIq5NRPBdQmR-12" value="Edit Note" style="rounded=0;whiteSpace=wrap;html=1;fillColor=#E6E6E6;" parent="1" vertex="1">
                    <mxGeometry x="1972" y="499" width="120" height="40" as="geometry"/>
                </mxCell>
                <mxCell id="PFeHFat0qIq5NRPBdQmR-24" style="edgeStyle=none;html=1;entryX=1;entryY=0.5;entryDx=0;entryDy=0;fontSize=10;exitX=0;exitY=0.5;exitDx=0;exitDy=0;" parent="1" source="PFeHFat0qIq5NRPBdQmR-18" target="PFeHFat0qIq5NRPBdQmR-22" edge="1">
                    <mxGeometry relative="1" as="geometry"/>
                </mxCell>
                <mxCell id="PFeHFat0qIq5NRPBdQmR-18" value="New Note" style="rounded=1;whiteSpace=wrap;html=1;fillColor=#CCFFFF;" parent="1" vertex="1">
                    <mxGeometry x="1742" y="621" width="160" height="80" as="geometry"/>
                </mxCell>
                <mxCell id="PFeHFat0qIq5NRPBdQmR-20" value="Cancel" style="strokeWidth=1;shadow=0;dashed=0;align=center;html=1;shape=mxgraph.mockup.buttons.button;strokeColor=#666666;fontColor=#ffffff;mainText=;buttonStyle=round;fontSize=17;fontStyle=1;fillColor=#008cff;whiteSpace=wrap;" parent="1" vertex="1">
                    <mxGeometry x="1987" y="1070" width="150" height="40" as="geometry"/>
                </mxCell>
                <mxCell id="PFeHFat0qIq5NRPBdQmR-26" style="edgeStyle=none;html=1;fontSize=10;" parent="1" source="PFeHFat0qIq5NRPBdQmR-21" target="CNkwPxVMg8bD5Nznt0NU-67" edge="1">
                    <mxGeometry relative="1" as="geometry">
                        <mxPoint x="1540" y="740" as="targetPoint"/>
                    </mxGeometry>
                </mxCell>
                <mxCell id="PFeHFat0qIq5NRPBdQmR-21" value="New Note" style="rounded=0;whiteSpace=wrap;html=1;fillColor=#E6E6E6;" parent="1" vertex="1">
                    <mxGeometry x="1622" y="701" width="120" height="40" as="geometry"/>
                </mxCell>
                <mxCell id="PFeHFat0qIq5NRPBdQmR-27" style="edgeStyle=none;html=1;fontSize=10;" parent="1" source="PFeHFat0qIq5NRPBdQmR-22" target="PFeHFat0qIq5NRPBdQmR-21" edge="1">
                    <mxGeometry relative="1" as="geometry"/>
                </mxCell>
                <mxCell id="PFeHFat0qIq5NRPBdQmR-32" style="edgeStyle=none;html=1;entryX=0.5;entryY=0;entryDx=0;entryDy=0;fontSize=10;" parent="1" source="PFeHFat0qIq5NRPBdQmR-22" target="PFeHFat0qIq5NRPBdQmR-30" edge="1">
                    <mxGeometry relative="1" as="geometry"/>
                </mxCell>
                <mxCell id="PFeHFat0qIq5NRPBdQmR-22" value="button?" style="rhombus;whiteSpace=wrap;html=1;fillColor=#DEDEDE;" parent="1" vertex="1">
                    <mxGeometry x="1640" y="585" width="80" height="80" as="geometry"/>
                </mxCell>
                <mxCell id="PFeHFat0qIq5NRPBdQmR-33" style="edgeStyle=none;html=1;entryX=1;entryY=0.25;entryDx=0;entryDy=0;fontSize=10;" parent="1" source="PFeHFat0qIq5NRPBdQmR-30" target="CNkwPxVMg8bD5Nznt0NU-38" edge="1">
                    <mxGeometry relative="1" as="geometry"/>
                </mxCell>
                <mxCell id="PFeHFat0qIq5NRPBdQmR-30" value="Cancel" style="rounded=0;whiteSpace=wrap;html=1;fillColor=#E6E6E6;" parent="1" vertex="1">
                    <mxGeometry x="1532.5" y="651" width="120" height="40" as="geometry"/>
                </mxCell>
                <mxCell id="PFeHFat0qIq5NRPBdQmR-34" value="Cancel" style="strokeWidth=1;shadow=0;dashed=0;align=center;html=1;shape=mxgraph.mockup.buttons.button;strokeColor=#666666;fontColor=#ffffff;mainText=;buttonStyle=round;fontSize=17;fontStyle=1;fillColor=#008cff;whiteSpace=wrap;" parent="1" vertex="1">
                    <mxGeometry x="2014.25" y="1350" width="150" height="40" as="geometry"/>
                </mxCell>
                <mxCell id="PFeHFat0qIq5NRPBdQmR-35" value="Update Note" style="strokeWidth=1;shadow=0;dashed=0;align=center;html=1;shape=mxgraph.mockup.buttons.button;strokeColor=#666666;fontColor=#ffffff;mainText=;buttonStyle=round;fontSize=17;fontStyle=1;fillColor=#008cff;whiteSpace=wrap;" parent="1" vertex="1">
                    <mxGeometry x="2014.25" y="1295.5" width="150" height="40" as="geometry"/>
                </mxCell>
                <mxCell id="PFeHFat0qIq5NRPBdQmR-41" style="edgeStyle=none;html=1;entryX=1;entryY=0.5;entryDx=0;entryDy=0;fontSize=10;" parent="1" source="PFeHFat0qIq5NRPBdQmR-36" target="CNkwPxVMg8bD5Nznt0NU-38" edge="1">
                    <mxGeometry relative="1" as="geometry"/>
                </mxCell>
                <mxCell id="PFeHFat0qIq5NRPBdQmR-36" value="Cancel" style="rounded=0;whiteSpace=wrap;html=1;fillColor=#E6E6E6;" parent="1" vertex="1">
                    <mxGeometry x="1816" y="721" width="120" height="40" as="geometry"/>
                </mxCell>
                <mxCell id="PFeHFat0qIq5NRPBdQmR-39" style="edgeStyle=none;html=1;entryX=0.5;entryY=0;entryDx=0;entryDy=0;fontSize=10;" parent="1" source="PFeHFat0qIq5NRPBdQmR-37" target="PFeHFat0qIq5NRPBdQmR-38" edge="1">
                    <mxGeometry relative="1" as="geometry"/>
                </mxCell>
                <mxCell id="PFeHFat0qIq5NRPBdQmR-37" value="Update Note" style="rounded=1;whiteSpace=wrap;html=1;fillColor=#CCFFFF;" parent="1" vertex="1">
                    <mxGeometry x="1952" y="585" width="160" height="80" as="geometry"/>
                </mxCell>
                <mxCell id="PFeHFat0qIq5NRPBdQmR-40" style="edgeStyle=none;html=1;entryX=1;entryY=0.5;entryDx=0;entryDy=0;fontSize=10;" parent="1" source="PFeHFat0qIq5NRPBdQmR-38" target="PFeHFat0qIq5NRPBdQmR-36" edge="1">
                    <mxGeometry relative="1" as="geometry"/>
                </mxCell>
                <mxCell id="PFeHFat0qIq5NRPBdQmR-44" style="edgeStyle=none;html=1;entryX=1;entryY=0.5;entryDx=0;entryDy=0;fontSize=10;" parent="1" source="PFeHFat0qIq5NRPBdQmR-38" target="PFeHFat0qIq5NRPBdQmR-42" edge="1">
                    <mxGeometry relative="1" as="geometry"/>
                </mxCell>
                <mxCell id="PFeHFat0qIq5NRPBdQmR-38" value="button?" style="rhombus;whiteSpace=wrap;html=1;fillColor=#DEDEDE;" parent="1" vertex="1">
                    <mxGeometry x="1992" y="701.5" width="80" height="80" as="geometry"/>
                </mxCell>
                <mxCell id="PFeHFat0qIq5NRPBdQmR-43" style="edgeStyle=none;html=1;entryX=0.951;entryY=0.999;entryDx=0;entryDy=0;entryPerimeter=0;fontSize=10;" parent="1" source="PFeHFat0qIq5NRPBdQmR-42" target="CNkwPxVMg8bD5Nznt0NU-38" edge="1">
                    <mxGeometry relative="1" as="geometry"/>
                </mxCell>
                <mxCell id="PFeHFat0qIq5NRPBdQmR-42" value="Update Note" style="rounded=0;whiteSpace=wrap;html=1;fillColor=#FFFFCC;" parent="1" vertex="1">
                    <mxGeometry x="1816" y="801" width="120" height="40" as="geometry"/>
                </mxCell>
                <mxCell id="PFeHFat0qIq5NRPBdQmR-66" value="Add Labour" style="strokeWidth=1;shadow=0;dashed=0;align=center;html=1;shape=mxgraph.mockup.buttons.button;strokeColor=#666666;fontColor=#ffffff;mainText=;buttonStyle=round;fontSize=17;fontStyle=1;fillColor=#008cff;whiteSpace=wrap;" parent="1" vertex="1">
                    <mxGeometry x="1459" y="958" width="150" height="40" as="geometry"/>
                </mxCell>
                <mxCell id="PFeHFat0qIq5NRPBdQmR-68" value="edit" style="strokeWidth=1;shadow=0;dashed=0;align=center;html=1;shape=mxgraph.mockup.buttons.button;strokeColor=#666666;fontColor=#ffffff;mainText=;buttonStyle=round;fontSize=17;fontStyle=1;fillColor=#008cff;whiteSpace=wrap;" parent="1" vertex="1">
                    <mxGeometry x="1570" y="1233.5" width="77" height="40" as="geometry"/>
                </mxCell>
                <mxCell id="PFeHFat0qIq5NRPBdQmR-69" value="edit" style="strokeWidth=1;shadow=0;dashed=0;align=center;html=1;shape=mxgraph.mockup.buttons.button;strokeColor=#666666;fontColor=#ffffff;mainText=;buttonStyle=round;fontSize=17;fontStyle=1;fillColor=#008cff;whiteSpace=wrap;" parent="1" vertex="1">
                    <mxGeometry x="1570" y="1495" width="77" height="40" as="geometry"/>
                </mxCell>
                <mxCell id="PFeHFat0qIq5NRPBdQmR-70" value="&lt;span style=&quot;font-size: 10px;&quot;&gt;......&amp;nbsp; continued&amp;nbsp; .....&lt;/span&gt;" style="rounded=0;whiteSpace=wrap;html=1;strokeColor=none;" parent="1" vertex="1">
                    <mxGeometry x="1430" y="1547.25" width="220" height="25.5" as="geometry"/>
                </mxCell>
                <mxCell id="PFeHFat0qIq5NRPBdQmR-93" value="" style="rounded=1;whiteSpace=wrap;html=1;shadow=0;fontFamily=Helvetica;fontSize=10;fillColor=#FFFFFF;strokeColor=#C7C7C7;" parent="1" vertex="1">
                    <mxGeometry x="1699" y="949" width="219.5" height="60" as="geometry"/>
                </mxCell>
                <mxCell id="PFeHFat0qIq5NRPBdQmR-95" value="&lt;h1&gt;&lt;span style=&quot;font-size: 14px;&quot;&gt;Parts&lt;/span&gt;&lt;/h1&gt;" style="text;html=1;strokeColor=none;fillColor=#E6E6E6;align=left;verticalAlign=middle;whiteSpace=wrap;rounded=0;" parent="1" vertex="1">
                    <mxGeometry x="1699" y="914.5" width="228" height="30" as="geometry"/>
                </mxCell>
                <mxCell id="PFeHFat0qIq5NRPBdQmR-109" value="Add Parts" style="strokeWidth=1;shadow=0;dashed=0;align=center;html=1;shape=mxgraph.mockup.buttons.button;strokeColor=#666666;fontColor=#ffffff;mainText=;buttonStyle=round;fontSize=17;fontStyle=1;fillColor=#008cff;whiteSpace=wrap;" parent="1" vertex="1">
                    <mxGeometry x="1731" y="959" width="150" height="40" as="geometry"/>
                </mxCell>
                <mxCell id="PFeHFat0qIq5NRPBdQmR-113" value="edit" style="strokeWidth=1;shadow=0;dashed=0;align=center;html=1;shape=mxgraph.mockup.buttons.button;strokeColor=#666666;fontColor=#ffffff;mainText=;buttonStyle=round;fontSize=17;fontStyle=1;fillColor=#008cff;whiteSpace=wrap;" parent="1" vertex="1">
                    <mxGeometry x="1837.5" y="1118" width="77" height="40" as="geometry"/>
                </mxCell>
                <mxCell id="mQ48e2Va2z9JHEJBgprD-35" style="edgeStyle=none;html=1;entryX=0.5;entryY=0;entryDx=0;entryDy=0;fontSize=10;" parent="1" source="PFeHFat0qIq5NRPBdQmR-114" target="YbFCL8d-j3u_tiSrlF40-6" edge="1">
                    <mxGeometry relative="1" as="geometry"/>
                </mxCell>
                <mxCell id="PFeHFat0qIq5NRPBdQmR-114" value="Add Labour" style="rounded=0;whiteSpace=wrap;html=1;fillColor=#E6E6E6;" parent="1" vertex="1">
                    <mxGeometry x="2730" y="227" width="120" height="40" as="geometry"/>
                </mxCell>
                <mxCell id="mQ48e2Va2z9JHEJBgprD-13" style="edgeStyle=none;html=1;entryX=0.5;entryY=0;entryDx=0;entryDy=0;fontSize=10;" parent="1" source="PFeHFat0qIq5NRPBdQmR-115" target="PFeHFat0qIq5NRPBdQmR-116" edge="1">
                    <mxGeometry relative="1" as="geometry"/>
                </mxCell>
                <mxCell id="PFeHFat0qIq5NRPBdQmR-115" value="Add Parts" style="rounded=0;whiteSpace=wrap;html=1;fillColor=#E6E6E6;" parent="1" vertex="1">
                    <mxGeometry x="2410" y="356" width="120" height="40" as="geometry"/>
                </mxCell>
                <mxCell id="PFeHFat0qIq5NRPBdQmR-116" value="ADD PART&lt;br&gt;&lt;font style=&quot;font-size: 10px;&quot;&gt;(single)&lt;/font&gt;" style="rounded=1;whiteSpace=wrap;html=1;fillColor=#CCFFFF;" parent="1" vertex="1">
                    <mxGeometry x="2390" y="481" width="160" height="80" as="geometry"/>
                </mxCell>
                <mxCell id="PFeHFat0qIq5NRPBdQmR-117" value="EDIT PART&lt;br&gt;&lt;font style=&quot;font-size: 10px;&quot;&gt;(single)&lt;/font&gt;" style="rounded=1;whiteSpace=wrap;html=1;fillColor=#CCFFFF;" parent="1" vertex="1">
                    <mxGeometry x="2500" y="572" width="160" height="80" as="geometry"/>
                </mxCell>
                <mxCell id="KLLbhI3z7LtqZfcJgJ_d-1" value="Edit Request" style="strokeWidth=1;shadow=0;dashed=0;align=center;html=1;shape=mxgraph.mockup.containers.window;align=left;verticalAlign=top;spacingLeft=8;strokeColor2=#008cff;strokeColor3=#c4c4c4;fontColor=#666666;mainText=;fontSize=17;labelBackgroundColor=none;" parent="1" vertex="1">
                    <mxGeometry x="2220" y="880" width="240" height="450" as="geometry"/>
                </mxCell>
                <mxCell id="KLLbhI3z7LtqZfcJgJ_d-2" value="&lt;h1&gt;&lt;font style=&quot;font-size: 14px;&quot;&gt;&lt;b&gt;EDIT REQUEST&lt;/b&gt;&lt;/font&gt;&lt;/h1&gt;" style="text;html=1;strokeColor=none;fillColor=none;align=center;verticalAlign=middle;whiteSpace=wrap;rounded=0;" parent="1" vertex="1">
                    <mxGeometry x="2220" y="911" width="240" height="30" as="geometry"/>
                </mxCell>
                <mxCell id="KLLbhI3z7LtqZfcJgJ_d-3" value="Oil Change" style="rounded=0;whiteSpace=wrap;html=1;" parent="1" vertex="1">
                    <mxGeometry x="2230" y="1015" width="220" height="20" as="geometry"/>
                </mxCell>
                <mxCell id="KLLbhI3z7LtqZfcJgJ_d-4" value="&lt;span style=&quot;font-size: 14px;&quot;&gt;Service Type:&lt;/span&gt;" style="text;html=1;strokeColor=none;fillColor=none;align=left;verticalAlign=middle;whiteSpace=wrap;rounded=0;" parent="1" vertex="1">
                    <mxGeometry x="2230" y="990" width="220" height="30" as="geometry"/>
                </mxCell>
                <mxCell id="KLLbhI3z7LtqZfcJgJ_d-5" value="Lourens" style="rounded=0;whiteSpace=wrap;html=1;" parent="1" vertex="1">
                    <mxGeometry x="2230" y="1060" width="220" height="20" as="geometry"/>
                </mxCell>
                <mxCell id="KLLbhI3z7LtqZfcJgJ_d-6" value="&lt;span style=&quot;font-size: 14px;&quot;&gt;Technician:&lt;/span&gt;" style="text;html=1;strokeColor=none;fillColor=none;align=left;verticalAlign=middle;whiteSpace=wrap;rounded=0;" parent="1" vertex="1">
                    <mxGeometry x="2230" y="1032" width="220" height="30" as="geometry"/>
                </mxCell>
                <mxCell id="KLLbhI3z7LtqZfcJgJ_d-11" value="Macquire" style="rounded=0;whiteSpace=wrap;html=1;" parent="1" vertex="1">
                    <mxGeometry x="2230" y="1109" width="220" height="20" as="geometry"/>
                </mxCell>
                <mxCell id="KLLbhI3z7LtqZfcJgJ_d-12" value="&lt;span style=&quot;font-size: 14px;&quot;&gt;Equipment:&lt;/span&gt;" style="text;html=1;strokeColor=none;fillColor=none;align=left;verticalAlign=middle;whiteSpace=wrap;rounded=0;" parent="1" vertex="1">
                    <mxGeometry x="2230" y="1084" width="220" height="30" as="geometry"/>
                </mxCell>
                <mxCell id="KLLbhI3z7LtqZfcJgJ_d-13" value="Update Service" style="strokeWidth=1;shadow=0;dashed=0;align=center;html=1;shape=mxgraph.mockup.buttons.button;strokeColor=#666666;fontColor=#ffffff;mainText=;buttonStyle=round;fontSize=17;fontStyle=1;fillColor=#008cff;whiteSpace=wrap;" parent="1" vertex="1">
                    <mxGeometry x="2265" y="1288.5" width="150" height="40" as="geometry"/>
                </mxCell>
                <mxCell id="KLLbhI3z7LtqZfcJgJ_d-14" value="&lt;span style=&quot;font-size: 10px;&quot;&gt;Blender not blending&lt;/span&gt;" style="rounded=0;whiteSpace=wrap;html=1;" parent="1" vertex="1">
                    <mxGeometry x="2230" y="1231.5" width="220" height="45" as="geometry"/>
                </mxCell>
                <mxCell id="KLLbhI3z7LtqZfcJgJ_d-15" value="&lt;span style=&quot;font-size: 14px;&quot;&gt;Description&lt;/span&gt;" style="text;html=1;strokeColor=none;fillColor=none;align=left;verticalAlign=middle;whiteSpace=wrap;rounded=0;" parent="1" vertex="1">
                    <mxGeometry x="2230" y="1205.5" width="220" height="30" as="geometry"/>
                </mxCell>
                <mxCell id="mQ48e2Va2z9JHEJBgprD-1" value="Add Parts" style="strokeWidth=1;shadow=0;dashed=0;align=center;html=1;shape=mxgraph.mockup.containers.window;align=left;verticalAlign=top;spacingLeft=8;strokeColor2=#008cff;strokeColor3=#c4c4c4;fontColor=#666666;mainText=;fontSize=17;labelBackgroundColor=none;" parent="1" vertex="1">
                    <mxGeometry x="2500" y="880" width="240" height="210" as="geometry"/>
                </mxCell>
                <mxCell id="mQ48e2Va2z9JHEJBgprD-3" value="Part Detail 3" style="rounded=0;whiteSpace=wrap;html=1;" parent="1" vertex="1">
                    <mxGeometry x="2510" y="943" width="220" height="20" as="geometry"/>
                </mxCell>
                <mxCell id="mQ48e2Va2z9JHEJBgprD-4" value="&lt;span style=&quot;font-size: 14px;&quot;&gt;Parts&lt;/span&gt;" style="text;html=1;strokeColor=none;fillColor=none;align=left;verticalAlign=middle;whiteSpace=wrap;rounded=0;" parent="1" vertex="1">
                    <mxGeometry x="2510" y="918" width="220" height="30" as="geometry"/>
                </mxCell>
                <mxCell id="mQ48e2Va2z9JHEJBgprD-5" value="Add Part" style="strokeWidth=1;shadow=0;dashed=0;align=center;html=1;shape=mxgraph.mockup.buttons.button;strokeColor=#666666;fontColor=#ffffff;mainText=;buttonStyle=round;fontSize=17;fontStyle=1;fillColor=#008cff;whiteSpace=wrap;" parent="1" vertex="1">
                    <mxGeometry x="2580" y="976" width="150" height="40" as="geometry"/>
                </mxCell>
                <mxCell id="mQ48e2Va2z9JHEJBgprD-6" value="Gus" style="rounded=0;whiteSpace=wrap;html=1;" parent="1" vertex="1">
                    <mxGeometry x="2772" y="948" width="220" height="20" as="geometry"/>
                </mxCell>
                <mxCell id="mQ48e2Va2z9JHEJBgprD-7" value="&lt;span style=&quot;font-size: 14px;&quot;&gt;Technician:&lt;/span&gt;" style="text;html=1;strokeColor=none;fillColor=none;align=left;verticalAlign=middle;whiteSpace=wrap;rounded=0;" parent="1" vertex="1">
                    <mxGeometry x="2772" y="923" width="220" height="30" as="geometry"/>
                </mxCell>
                <mxCell id="mQ48e2Va2z9JHEJBgprD-8" value="10" style="rounded=0;whiteSpace=wrap;html=1;" parent="1" vertex="1">
                    <mxGeometry x="2770" y="1117" width="220" height="20" as="geometry"/>
                </mxCell>
                <mxCell id="mQ48e2Va2z9JHEJBgprD-9" value="&lt;span style=&quot;font-size: 14px;&quot;&gt;Hours&lt;/span&gt;" style="text;html=1;strokeColor=none;fillColor=none;align=left;verticalAlign=middle;whiteSpace=wrap;rounded=0;" parent="1" vertex="1">
                    <mxGeometry x="2770" y="1088" width="220" height="30" as="geometry"/>
                </mxCell>
                <mxCell id="mQ48e2Va2z9JHEJBgprD-10" value="&lt;span style=&quot;font-size: 14px;&quot;&gt;Detail:&lt;/span&gt;" style="text;html=1;strokeColor=none;fillColor=none;align=left;verticalAlign=middle;whiteSpace=wrap;rounded=0;" parent="1" vertex="1">
                    <mxGeometry x="2772" y="978" width="220" height="30" as="geometry"/>
                </mxCell>
                <mxCell id="mQ48e2Va2z9JHEJBgprD-11" value="link to detail / text ??" style="rounded=0;whiteSpace=wrap;html=1;" parent="1" vertex="1">
                    <mxGeometry x="2772.5" y="1003" width="220" height="20" as="geometry"/>
                </mxCell>
                <mxCell id="mQ48e2Va2z9JHEJBgprD-12" value="Add Labour" style="strokeWidth=1;shadow=0;dashed=0;align=center;html=1;shape=mxgraph.mockup.buttons.button;strokeColor=#666666;fontColor=#ffffff;mainText=;buttonStyle=round;fontSize=17;fontStyle=1;fillColor=#008cff;whiteSpace=wrap;" parent="1" vertex="1">
                    <mxGeometry x="2840" y="1150.5" width="150" height="40" as="geometry"/>
                </mxCell>
                <mxCell id="mQ48e2Va2z9JHEJBgprD-15" value="Cancel" style="strokeWidth=1;shadow=0;dashed=0;align=center;html=1;shape=mxgraph.mockup.buttons.button;strokeColor=#666666;fontColor=#ffffff;mainText=;buttonStyle=round;fontSize=17;fontStyle=1;fillColor=#008cff;whiteSpace=wrap;" parent="1" vertex="1">
                    <mxGeometry x="2580" y="1029.5" width="150" height="40" as="geometry"/>
                </mxCell>
                <mxCell id="mQ48e2Va2z9JHEJBgprD-16" value="Edit Parts" style="strokeWidth=1;shadow=0;dashed=0;align=center;html=1;shape=mxgraph.mockup.containers.window;align=left;verticalAlign=top;spacingLeft=8;strokeColor2=#008cff;strokeColor3=#c4c4c4;fontColor=#666666;mainText=;fontSize=17;labelBackgroundColor=none;" parent="1" vertex="1">
                    <mxGeometry x="2500" y="1118" width="240" height="242" as="geometry"/>
                </mxCell>
                <mxCell id="mQ48e2Va2z9JHEJBgprD-17" value="Part Detail 3" style="rounded=0;whiteSpace=wrap;html=1;" parent="1" vertex="1">
                    <mxGeometry x="2510" y="1181" width="220" height="20" as="geometry"/>
                </mxCell>
                <mxCell id="mQ48e2Va2z9JHEJBgprD-19" value="Edit Part" style="strokeWidth=1;shadow=0;dashed=0;align=center;html=1;shape=mxgraph.mockup.buttons.button;strokeColor=#666666;fontColor=#ffffff;mainText=;buttonStyle=round;fontSize=17;fontStyle=1;fillColor=#008cff;whiteSpace=wrap;" parent="1" vertex="1">
                    <mxGeometry x="2580" y="1214" width="150" height="40" as="geometry"/>
                </mxCell>
                <mxCell id="mQ48e2Va2z9JHEJBgprD-20" value="Cancel" style="strokeWidth=1;shadow=0;dashed=0;align=center;html=1;shape=mxgraph.mockup.buttons.button;strokeColor=#666666;fontColor=#ffffff;mainText=;buttonStyle=round;fontSize=17;fontStyle=1;fillColor=#008cff;whiteSpace=wrap;" parent="1" vertex="1">
                    <mxGeometry x="2580" y="1303" width="150" height="40" as="geometry"/>
                </mxCell>
                <mxCell id="mQ48e2Va2z9JHEJBgprD-21" value="Delete Part" style="strokeWidth=1;shadow=0;dashed=0;align=center;html=1;shape=mxgraph.mockup.buttons.button;strokeColor=#666666;fontColor=#ffffff;mainText=;buttonStyle=round;fontSize=17;fontStyle=1;fillColor=#008cff;whiteSpace=wrap;" parent="1" vertex="1">
                    <mxGeometry x="2580" y="1258" width="150" height="40" as="geometry"/>
                </mxCell>
                <mxCell id="mQ48e2Va2z9JHEJBgprD-22" value="Cancel" style="strokeWidth=1;shadow=0;dashed=0;align=center;html=1;shape=mxgraph.mockup.buttons.button;strokeColor=#666666;fontColor=#ffffff;mainText=;buttonStyle=round;fontSize=17;fontStyle=1;fillColor=#008cff;whiteSpace=wrap;" parent="1" vertex="1">
                    <mxGeometry x="2839.5" y="1197" width="150" height="40" as="geometry"/>
                </mxCell>
                <mxCell id="mQ48e2Va2z9JHEJBgprD-24" value="Edit Labour" style="strokeWidth=1;shadow=0;dashed=0;align=center;html=1;shape=mxgraph.mockup.containers.window;align=left;verticalAlign=top;spacingLeft=8;strokeColor2=#008cff;strokeColor3=#c4c4c4;fontColor=#666666;mainText=;fontSize=17;labelBackgroundColor=none;" parent="1" vertex="1">
                    <mxGeometry x="2760" y="1266" width="240" height="416" as="geometry"/>
                </mxCell>
                <mxCell id="mQ48e2Va2z9JHEJBgprD-25" value="Gus" style="rounded=0;whiteSpace=wrap;html=1;" parent="1" vertex="1">
                    <mxGeometry x="2772" y="1334" width="220" height="20" as="geometry"/>
                </mxCell>
                <mxCell id="mQ48e2Va2z9JHEJBgprD-26" value="&lt;span style=&quot;font-size: 14px;&quot;&gt;Technician:&lt;/span&gt;" style="text;html=1;strokeColor=none;fillColor=none;align=left;verticalAlign=middle;whiteSpace=wrap;rounded=0;" parent="1" vertex="1">
                    <mxGeometry x="2772" y="1309" width="220" height="30" as="geometry"/>
                </mxCell>
                <mxCell id="mQ48e2Va2z9JHEJBgprD-27" value="10" style="rounded=0;whiteSpace=wrap;html=1;" parent="1" vertex="1">
                    <mxGeometry x="2771.5" y="1498.25" width="220" height="20" as="geometry"/>
                </mxCell>
                <mxCell id="mQ48e2Va2z9JHEJBgprD-28" value="&lt;span style=&quot;font-size: 14px;&quot;&gt;Hours&lt;/span&gt;" style="text;html=1;strokeColor=none;fillColor=none;align=left;verticalAlign=middle;whiteSpace=wrap;rounded=0;" parent="1" vertex="1">
                    <mxGeometry x="2771.5" y="1469.25" width="220" height="30" as="geometry"/>
                </mxCell>
                <mxCell id="mQ48e2Va2z9JHEJBgprD-29" value="&lt;span style=&quot;font-size: 14px;&quot;&gt;Detail:&lt;/span&gt;" style="text;html=1;strokeColor=none;fillColor=none;align=left;verticalAlign=middle;whiteSpace=wrap;rounded=0;" parent="1" vertex="1">
                    <mxGeometry x="2772" y="1364" width="220" height="30" as="geometry"/>
                </mxCell>
                <mxCell id="mQ48e2Va2z9JHEJBgprD-30" value="link to detail / text ??" style="rounded=0;whiteSpace=wrap;html=1;" parent="1" vertex="1">
                    <mxGeometry x="2772.5" y="1389" width="220" height="20" as="geometry"/>
                </mxCell>
                <mxCell id="mQ48e2Va2z9JHEJBgprD-31" value="Edit Labour" style="strokeWidth=1;shadow=0;dashed=0;align=center;html=1;shape=mxgraph.mockup.buttons.button;strokeColor=#666666;fontColor=#ffffff;mainText=;buttonStyle=round;fontSize=17;fontStyle=1;fillColor=#008cff;whiteSpace=wrap;" parent="1" vertex="1">
                    <mxGeometry x="2842" y="1525.75" width="150" height="40" as="geometry"/>
                </mxCell>
                <mxCell id="mQ48e2Va2z9JHEJBgprD-32" value="Delete Labour" style="strokeWidth=1;shadow=0;dashed=0;align=center;html=1;shape=mxgraph.mockup.buttons.button;strokeColor=#666666;fontColor=#ffffff;mainText=;buttonStyle=round;fontSize=17;fontStyle=1;fillColor=#008cff;whiteSpace=wrap;" parent="1" vertex="1">
                    <mxGeometry x="2839.5" y="1573.25" width="150" height="40" as="geometry"/>
                </mxCell>
                <mxCell id="mQ48e2Va2z9JHEJBgprD-33" value="Cancel" style="strokeWidth=1;shadow=0;dashed=0;align=center;html=1;shape=mxgraph.mockup.buttons.button;strokeColor=#666666;fontColor=#ffffff;mainText=;buttonStyle=round;fontSize=17;fontStyle=1;fillColor=#008cff;whiteSpace=wrap;" parent="1" vertex="1">
                    <mxGeometry x="2839.5" y="1621.25" width="150" height="40" as="geometry"/>
                </mxCell>
                <mxCell id="c1rjcYHK_WHi7w-Et3qm-1" value="New Request" style="strokeWidth=1;shadow=0;dashed=0;align=center;html=1;shape=mxgraph.mockup.containers.window;align=left;verticalAlign=top;spacingLeft=8;strokeColor2=#008cff;strokeColor3=#c4c4c4;fontColor=#666666;mainText=;fontSize=17;labelBackgroundColor=none;" parent="1" vertex="1">
                    <mxGeometry x="3350" y="893.5" width="240" height="460" as="geometry"/>
                </mxCell>
                <mxCell id="c1rjcYHK_WHi7w-Et3qm-2" value="&lt;h1&gt;&lt;font style=&quot;font-size: 14px;&quot;&gt;&lt;b&gt;REQUEST SERVICE&lt;/b&gt;&lt;/font&gt;&lt;/h1&gt;" style="text;html=1;strokeColor=none;fillColor=none;align=center;verticalAlign=middle;whiteSpace=wrap;rounded=0;" parent="1" vertex="1">
                    <mxGeometry x="3350" y="924.5" width="240" height="30" as="geometry"/>
                </mxCell>
                <mxCell id="c1rjcYHK_WHi7w-Et3qm-3" value="Oil Change" style="rounded=0;whiteSpace=wrap;html=1;" parent="1" vertex="1">
                    <mxGeometry x="3360" y="976.5" width="220" height="20" as="geometry"/>
                </mxCell>
                <mxCell id="c1rjcYHK_WHi7w-Et3qm-4" value="&lt;span style=&quot;font-size: 14px;&quot;&gt;Service Type:&lt;/span&gt;" style="text;html=1;strokeColor=none;fillColor=none;align=left;verticalAlign=middle;whiteSpace=wrap;rounded=0;" parent="1" vertex="1">
                    <mxGeometry x="3360" y="951.5" width="220" height="30" as="geometry"/>
                </mxCell>
                <mxCell id="c1rjcYHK_WHi7w-Et3qm-5" value="Lourens" style="rounded=0;whiteSpace=wrap;html=1;" parent="1" vertex="1">
                    <mxGeometry x="3360" y="1021.5" width="220" height="20" as="geometry"/>
                </mxCell>
                <mxCell id="c1rjcYHK_WHi7w-Et3qm-6" value="&lt;span style=&quot;font-size: 14px;&quot;&gt;Technician:&lt;/span&gt;" style="text;html=1;strokeColor=none;fillColor=none;align=left;verticalAlign=middle;whiteSpace=wrap;rounded=0;" parent="1" vertex="1">
                    <mxGeometry x="3360" y="993.5" width="220" height="30" as="geometry"/>
                </mxCell>
                <mxCell id="c1rjcYHK_WHi7w-Et3qm-7" value="2024/10/24" style="rounded=0;whiteSpace=wrap;html=1;" parent="1" vertex="1">
                    <mxGeometry x="3360" y="1183.5" width="220" height="20" as="geometry"/>
                </mxCell>
                <mxCell id="c1rjcYHK_WHi7w-Et3qm-8" value="&lt;span style=&quot;font-size: 14px;&quot;&gt;Date:&lt;/span&gt;" style="text;html=1;strokeColor=none;fillColor=none;align=left;verticalAlign=middle;whiteSpace=wrap;rounded=0;" parent="1" vertex="1">
                    <mxGeometry x="3360" y="1158.5" width="220" height="30" as="geometry"/>
                </mxCell>
                <mxCell id="c1rjcYHK_WHi7w-Et3qm-9" value="2024/10/24" style="rounded=0;whiteSpace=wrap;html=1;" parent="1" vertex="1">
                    <mxGeometry x="3360" y="1230.5" width="220" height="20" as="geometry"/>
                </mxCell>
                <mxCell id="c1rjcYHK_WHi7w-Et3qm-10" value="&lt;span style=&quot;font-size: 14px;&quot;&gt;Time:&lt;/span&gt;" style="text;html=1;strokeColor=none;fillColor=none;align=left;verticalAlign=middle;whiteSpace=wrap;rounded=0;" parent="1" vertex="1">
                    <mxGeometry x="3360" y="1205.5" width="220" height="30" as="geometry"/>
                </mxCell>
                <mxCell id="c1rjcYHK_WHi7w-Et3qm-11" value="Macquire" style="rounded=0;whiteSpace=wrap;html=1;" parent="1" vertex="1">
                    <mxGeometry x="3360" y="1070.5" width="220" height="20" as="geometry"/>
                </mxCell>
                <mxCell id="c1rjcYHK_WHi7w-Et3qm-12" value="&lt;span style=&quot;font-size: 14px;&quot;&gt;Equipment:&lt;/span&gt;" style="text;html=1;strokeColor=none;fillColor=none;align=left;verticalAlign=middle;whiteSpace=wrap;rounded=0;" parent="1" vertex="1">
                    <mxGeometry x="3360" y="1045.5" width="220" height="30" as="geometry"/>
                </mxCell>
                <mxCell id="c1rjcYHK_WHi7w-Et3qm-13" value="Request Service" style="strokeWidth=1;shadow=0;dashed=0;align=center;html=1;shape=mxgraph.mockup.buttons.button;strokeColor=#666666;fontColor=#ffffff;mainText=;buttonStyle=round;fontSize=17;fontStyle=1;fillColor=#008cff;whiteSpace=wrap;" parent="1" vertex="1">
                    <mxGeometry x="3395" y="1267.5" width="150" height="40" as="geometry"/>
                </mxCell>
                <mxCell id="c1rjcYHK_WHi7w-Et3qm-14" value="&lt;span style=&quot;font-size: 10px;&quot;&gt;Blender not blending&lt;/span&gt;" style="rounded=0;whiteSpace=wrap;html=1;" parent="1" vertex="1">
                    <mxGeometry x="3360" y="1118.5" width="220" height="45" as="geometry"/>
                </mxCell>
                <mxCell id="c1rjcYHK_WHi7w-Et3qm-15" value="&lt;span style=&quot;font-size: 14px;&quot;&gt;WO Description&lt;/span&gt;" style="text;html=1;strokeColor=none;fillColor=none;align=left;verticalAlign=middle;whiteSpace=wrap;rounded=0;" parent="1" vertex="1">
                    <mxGeometry x="3360" y="1092.5" width="220" height="30" as="geometry"/>
                </mxCell>
                <mxCell id="yNQaL559s5EMCa4NOt_Q-1" value="Sign Off Request" style="strokeWidth=1;shadow=0;dashed=0;align=center;html=1;shape=mxgraph.mockup.containers.window;align=left;verticalAlign=top;spacingLeft=8;strokeColor2=#008cff;strokeColor3=#c4c4c4;fontColor=#666666;mainText=;fontSize=17;labelBackgroundColor=none;" parent="1" vertex="1">
                    <mxGeometry x="4100" y="903.13" width="240" height="157" as="geometry"/>
                </mxCell>
                <mxCell id="yNQaL559s5EMCa4NOt_Q-2" value="&lt;span style=&quot;font-size: 10px;&quot;&gt;Confirmation Massage&lt;/span&gt;" style="rounded=0;whiteSpace=wrap;html=1;" parent="1" vertex="1">
                    <mxGeometry x="4110" y="945.13" width="220" height="45" as="geometry"/>
                </mxCell>
                <mxCell id="yNQaL559s5EMCa4NOt_Q-3" value="Sign Works Order" style="strokeWidth=1;shadow=0;dashed=0;align=center;html=1;shape=mxgraph.mockup.buttons.button;strokeColor=#666666;fontColor=#ffffff;mainText=;buttonStyle=round;fontSize=17;fontStyle=1;fillColor=#008cff;whiteSpace=wrap;" parent="1" vertex="1">
                    <mxGeometry x="4180" y="997.13" width="150" height="40" as="geometry"/>
                </mxCell>
                <mxCell id="yNQaL559s5EMCa4NOt_Q-4" value="Log Out" style="strokeWidth=1;shadow=0;dashed=0;align=center;html=1;shape=mxgraph.mockup.containers.window;align=left;verticalAlign=top;spacingLeft=8;strokeColor2=#008cff;strokeColor3=#c4c4c4;fontColor=#666666;mainText=;fontSize=17;labelBackgroundColor=none;" parent="1" vertex="1">
                    <mxGeometry x="4100" y="1092.38" width="240" height="107.5" as="geometry"/>
                </mxCell>
                <mxCell id="yNQaL559s5EMCa4NOt_Q-5" value="Log Out" style="strokeWidth=1;shadow=0;dashed=0;align=center;html=1;shape=mxgraph.mockup.buttons.button;strokeColor=#666666;fontColor=#ffffff;mainText=;buttonStyle=round;fontSize=17;fontStyle=1;fillColor=#008cff;whiteSpace=wrap;" parent="1" vertex="1">
                    <mxGeometry x="4145" y="1141.88" width="150" height="40" as="geometry"/>
                </mxCell>
                <mxCell id="TL66bbqC4xnDd6XfPNTZ-1" value="Confirm Request" style="strokeWidth=1;shadow=0;dashed=0;align=center;html=1;shape=mxgraph.mockup.containers.window;align=left;verticalAlign=top;spacingLeft=8;strokeColor2=#008cff;strokeColor3=#c4c4c4;fontColor=#666666;mainText=;fontSize=17;labelBackgroundColor=none;" parent="1" vertex="1">
                    <mxGeometry x="3740" y="882.5" width="240" height="579" as="geometry"/>
                </mxCell>
                <mxCell id="TL66bbqC4xnDd6XfPNTZ-2" value="&lt;h1&gt;&lt;font style=&quot;font-size: 14px;&quot;&gt;&lt;b&gt;CONFIRM SERVICE&lt;/b&gt;&lt;/font&gt;&lt;/h1&gt;" style="text;html=1;strokeColor=none;fillColor=none;align=center;verticalAlign=middle;whiteSpace=wrap;rounded=0;" parent="1" vertex="1">
                    <mxGeometry x="3740" y="913.5" width="240" height="30" as="geometry"/>
                </mxCell>
                <mxCell id="TL66bbqC4xnDd6XfPNTZ-3" value="Oil Change" style="rounded=0;whiteSpace=wrap;html=1;strokeColor=none;" parent="1" vertex="1">
                    <mxGeometry x="3750" y="1028.5" width="220" height="20" as="geometry"/>
                </mxCell>
                <mxCell id="TL66bbqC4xnDd6XfPNTZ-4" value="&lt;span style=&quot;font-size: 14px;&quot;&gt;Service Type:&lt;/span&gt;" style="text;html=1;strokeColor=none;fillColor=none;align=left;verticalAlign=middle;whiteSpace=wrap;rounded=0;" parent="1" vertex="1">
                    <mxGeometry x="3750" y="1003.5" width="220" height="30" as="geometry"/>
                </mxCell>
                <mxCell id="TL66bbqC4xnDd6XfPNTZ-5" value="Lourens" style="rounded=0;whiteSpace=wrap;html=1;strokeColor=none;" parent="1" vertex="1">
                    <mxGeometry x="3750" y="1073.5" width="220" height="20" as="geometry"/>
                </mxCell>
                <mxCell id="TL66bbqC4xnDd6XfPNTZ-6" value="&lt;span style=&quot;font-size: 14px;&quot;&gt;Technician:&lt;/span&gt;" style="text;html=1;strokeColor=none;fillColor=none;align=left;verticalAlign=middle;whiteSpace=wrap;rounded=0;" parent="1" vertex="1">
                    <mxGeometry x="3750" y="1045.5" width="220" height="30" as="geometry"/>
                </mxCell>
                <mxCell id="TL66bbqC4xnDd6XfPNTZ-7" value="2024/10/24" style="rounded=0;whiteSpace=wrap;html=1;" parent="1" vertex="1">
                    <mxGeometry x="3750" y="1235.5" width="220" height="20" as="geometry"/>
                </mxCell>
                <mxCell id="TL66bbqC4xnDd6XfPNTZ-8" value="&lt;span style=&quot;font-size: 14px;&quot;&gt;Date:&lt;/span&gt;" style="text;html=1;strokeColor=none;fillColor=none;align=left;verticalAlign=middle;whiteSpace=wrap;rounded=0;" parent="1" vertex="1">
                    <mxGeometry x="3750" y="1210.5" width="220" height="30" as="geometry"/>
                </mxCell>
                <mxCell id="TL66bbqC4xnDd6XfPNTZ-9" value="2024/10/24" style="rounded=0;whiteSpace=wrap;html=1;" parent="1" vertex="1">
                    <mxGeometry x="3750" y="1282.5" width="220" height="20" as="geometry"/>
                </mxCell>
                <mxCell id="TL66bbqC4xnDd6XfPNTZ-10" value="&lt;span style=&quot;font-size: 14px;&quot;&gt;Time:&lt;/span&gt;" style="text;html=1;strokeColor=none;fillColor=none;align=left;verticalAlign=middle;whiteSpace=wrap;rounded=0;" parent="1" vertex="1">
                    <mxGeometry x="3750" y="1257.5" width="220" height="30" as="geometry"/>
                </mxCell>
                <mxCell id="TL66bbqC4xnDd6XfPNTZ-11" value="Macquire" style="rounded=0;whiteSpace=wrap;html=1;strokeColor=none;" parent="1" vertex="1">
                    <mxGeometry x="3750" y="1122.5" width="220" height="20" as="geometry"/>
                </mxCell>
                <mxCell id="TL66bbqC4xnDd6XfPNTZ-12" value="&lt;span style=&quot;font-size: 14px;&quot;&gt;Equipment:&lt;/span&gt;" style="text;html=1;strokeColor=none;fillColor=none;align=left;verticalAlign=middle;whiteSpace=wrap;rounded=0;" parent="1" vertex="1">
                    <mxGeometry x="3750" y="1097.5" width="220" height="30" as="geometry"/>
                </mxCell>
                <mxCell id="TL66bbqC4xnDd6XfPNTZ-13" value="Confirm Service" style="strokeWidth=1;shadow=0;dashed=0;align=center;html=1;shape=mxgraph.mockup.buttons.button;strokeColor=#666666;fontColor=#ffffff;mainText=;buttonStyle=round;fontSize=17;fontStyle=1;fillColor=#008cff;whiteSpace=wrap;" parent="1" vertex="1">
                    <mxGeometry x="3785" y="1319.5" width="150" height="40" as="geometry"/>
                </mxCell>
                <mxCell id="TL66bbqC4xnDd6XfPNTZ-14" value="&lt;span style=&quot;font-size: 10px;&quot;&gt;Blender not blending&lt;/span&gt;" style="rounded=0;whiteSpace=wrap;html=1;strokeColor=none;" parent="1" vertex="1">
                    <mxGeometry x="3750" y="1170.5" width="220" height="45" as="geometry"/>
                </mxCell>
                <mxCell id="TL66bbqC4xnDd6XfPNTZ-15" value="&lt;span style=&quot;font-size: 14px;&quot;&gt;WO Description&lt;/span&gt;" style="text;html=1;strokeColor=none;fillColor=none;align=left;verticalAlign=middle;whiteSpace=wrap;rounded=0;" parent="1" vertex="1">
                    <mxGeometry x="3750" y="1144.5" width="220" height="30" as="geometry"/>
                </mxCell>
                <mxCell id="TL66bbqC4xnDd6XfPNTZ-16" value="Tutle Plas" style="rounded=0;whiteSpace=wrap;html=1;fillColor=none;" parent="1" vertex="1">
                    <mxGeometry x="3750" y="972.5" width="220" height="20" as="geometry"/>
                </mxCell>
                <mxCell id="TL66bbqC4xnDd6XfPNTZ-17" value="&lt;span style=&quot;font-size: 14px;&quot;&gt;Client Name&lt;/span&gt;" style="text;html=1;strokeColor=none;fillColor=none;align=left;verticalAlign=middle;whiteSpace=wrap;rounded=0;" parent="1" vertex="1">
                    <mxGeometry x="3750" y="947.5" width="220" height="30" as="geometry"/>
                </mxCell>
                <mxCell id="2" value="MQR879/2324/bl01" style="rounded=0;whiteSpace=wrap;html=1;strokeColor=none;" parent="1" vertex="1">
                    <mxGeometry x="1166" y="1270" width="220" height="20" as="geometry"/>
                </mxCell>
                <mxCell id="3" value="&lt;span style=&quot;font-size: 14px;&quot;&gt;Serial Number:&lt;/span&gt;" style="text;html=1;strokeColor=none;fillColor=none;align=left;verticalAlign=middle;whiteSpace=wrap;rounded=0;" parent="1" vertex="1">
                    <mxGeometry x="1166" y="1245" width="220" height="30" as="geometry"/>
                </mxCell>
                <mxCell id="4" value="7" style="rounded=0;whiteSpace=wrap;html=1;strokeColor=none;" parent="1" vertex="1">
                    <mxGeometry x="1440" y="1202" width="205" height="20" as="geometry"/>
                </mxCell>
                <mxCell id="5" value="&lt;span style=&quot;font-size: 14px;&quot;&gt;Hours&lt;/span&gt;" style="text;html=1;strokeColor=none;fillColor=none;align=left;verticalAlign=middle;whiteSpace=wrap;rounded=0;" parent="1" vertex="1">
                    <mxGeometry x="1431" y="1173" width="220" height="30" as="geometry"/>
                </mxCell>
                <mxCell id="6" value="Warranty" style="rounded=0;whiteSpace=wrap;html=1;strokeColor=none;" parent="1" vertex="1">
                    <mxGeometry x="1430" y="1415" width="220" height="20" as="geometry"/>
                </mxCell>
                <mxCell id="7" value="&lt;span style=&quot;font-size: 14px;&quot;&gt;Hours Type&lt;/span&gt;" style="text;html=1;strokeColor=none;fillColor=none;align=left;verticalAlign=middle;whiteSpace=wrap;rounded=0;" parent="1" vertex="1">
                    <mxGeometry x="1432" y="1386" width="220" height="30" as="geometry"/>
                </mxCell>
                <mxCell id="8" value="RO2410-006" style="rounded=0;whiteSpace=wrap;html=1;strokeColor=none;" parent="1" vertex="1">
                    <mxGeometry x="2231" y="970.5" width="220" height="20" as="geometry"/>
                </mxCell>
                <mxCell id="9" value="&lt;span style=&quot;font-size: 14px;&quot;&gt;Request Number&lt;/span&gt;" style="text;html=1;strokeColor=none;fillColor=none;align=left;verticalAlign=middle;whiteSpace=wrap;rounded=0;" parent="1" vertex="1">
                    <mxGeometry x="2231" y="945.5" width="220" height="30" as="geometry"/>
                </mxCell>
                <mxCell id="10" value="MQR879/2324/bl01" style="rounded=0;whiteSpace=wrap;html=1;strokeColor=black;" parent="1" vertex="1">
                    <mxGeometry x="2231" y="1167.5" width="220" height="20" as="geometry"/>
                </mxCell>
                <mxCell id="11" value="&lt;span style=&quot;font-size: 14px;&quot;&gt;Serial Number:&lt;/span&gt;" style="text;html=1;strokeColor=none;fillColor=none;align=left;verticalAlign=middle;whiteSpace=wrap;rounded=0;" parent="1" vertex="1">
                    <mxGeometry x="2231" y="1142.5" width="220" height="30" as="geometry"/>
                </mxCell>
                <mxCell id="12" value="Update Password" style="strokeWidth=1;shadow=0;dashed=0;align=center;html=1;shape=mxgraph.mockup.containers.window;align=left;verticalAlign=top;spacingLeft=8;strokeColor2=#008cff;strokeColor3=#c4c4c4;fontColor=#666666;mainText=;fontSize=17;labelBackgroundColor=none;" parent="1" vertex="1">
                    <mxGeometry x="33.5" y="1247" width="240" height="334" as="geometry"/>
                </mxCell>
                <mxCell id="13" value="John Doe" style="rounded=0;whiteSpace=wrap;html=1;" parent="1" vertex="1">
                    <mxGeometry x="43.5" y="1334" width="220" height="20" as="geometry"/>
                </mxCell>
                <mxCell id="14" value="&lt;font style=&quot;font-size: 14px;&quot;&gt;User Email:&amp;nbsp;&lt;/font&gt;" style="text;html=1;strokeColor=none;fillColor=none;align=left;verticalAlign=middle;whiteSpace=wrap;rounded=0;" parent="1" vertex="1">
                    <mxGeometry x="43.5" y="1309" width="220" height="30" as="geometry"/>
                </mxCell>
                <mxCell id="15" value="Update Password" style="strokeWidth=1;shadow=0;dashed=0;align=center;html=1;shape=mxgraph.mockup.buttons.button;strokeColor=#666666;fontColor=#ffffff;mainText=;buttonStyle=round;fontSize=17;fontStyle=1;fillColor=#008cff;whiteSpace=wrap;" parent="1" vertex="1">
                    <mxGeometry x="71" y="1528" width="150" height="40" as="geometry"/>
                </mxCell>
                <mxCell id="16" value="&lt;h1&gt;&lt;font style=&quot;font-size: 14px;&quot;&gt;&lt;b&gt;Update Password&lt;/b&gt;&lt;/font&gt;&lt;/h1&gt;" style="text;html=1;strokeColor=none;fillColor=none;align=center;verticalAlign=middle;whiteSpace=wrap;rounded=0;" parent="1" vertex="1">
                    <mxGeometry x="32.5" y="1278" width="240" height="30" as="geometry"/>
                </mxCell>
                <mxCell id="17" value="John Doe" style="rounded=0;whiteSpace=wrap;html=1;" parent="1" vertex="1">
                    <mxGeometry x="44" y="1386" width="220" height="20" as="geometry"/>
                </mxCell>
                <mxCell id="18" value="&lt;font style=&quot;font-size: 14px;&quot;&gt;Old Password:&lt;/font&gt;" style="text;html=1;strokeColor=none;fillColor=none;align=left;verticalAlign=middle;whiteSpace=wrap;rounded=0;" parent="1" vertex="1">
                    <mxGeometry x="44" y="1361" width="220" height="30" as="geometry"/>
                </mxCell>
                <mxCell id="19" value="John Doe" style="rounded=0;whiteSpace=wrap;html=1;" parent="1" vertex="1">
                    <mxGeometry x="43.5" y="1437.5" width="220" height="20" as="geometry"/>
                </mxCell>
                <mxCell id="20" value="&lt;font style=&quot;font-size: 14px;&quot;&gt;New Password:&lt;/font&gt;" style="text;html=1;strokeColor=none;fillColor=none;align=left;verticalAlign=middle;whiteSpace=wrap;rounded=0;" parent="1" vertex="1">
                    <mxGeometry x="43.5" y="1412.5" width="220" height="30" as="geometry"/>
                </mxCell>
                <mxCell id="21" value="John Doe" style="rounded=0;whiteSpace=wrap;html=1;" parent="1" vertex="1">
                    <mxGeometry x="44" y="1494.5" width="220" height="20" as="geometry"/>
                </mxCell>
                <mxCell id="22" value="&lt;font style=&quot;font-size: 14px;&quot;&gt;New Password (repeated):&lt;/font&gt;" style="text;html=1;strokeColor=none;fillColor=none;align=left;verticalAlign=middle;whiteSpace=wrap;rounded=0;" parent="1" vertex="1">
                    <mxGeometry x="44" y="1469.5" width="220" height="30" as="geometry"/>
                </mxCell>
                <mxCell id="23" value="Register" style="strokeWidth=1;shadow=0;dashed=0;align=center;html=1;shape=mxgraph.mockup.containers.window;align=left;verticalAlign=top;spacingLeft=8;strokeColor2=#008cff;strokeColor3=#c4c4c4;fontColor=#666666;mainText=;fontSize=17;labelBackgroundColor=none;" parent="1" vertex="1">
                    <mxGeometry x="590" y="1358.5" width="240" height="253.5" as="geometry"/>
                </mxCell>
                <mxCell id="24" value="John Doe" style="rounded=0;whiteSpace=wrap;html=1;" parent="1" vertex="1">
                    <mxGeometry x="600" y="1420.5" width="220" height="20" as="geometry"/>
                </mxCell>
                <mxCell id="25" value="&lt;font style=&quot;font-size: 14px;&quot;&gt;Email:&amp;nbsp;&lt;/font&gt;" style="text;html=1;strokeColor=none;fillColor=none;align=left;verticalAlign=middle;whiteSpace=wrap;rounded=0;" parent="1" vertex="1">
                    <mxGeometry x="600" y="1395.5" width="220" height="30" as="geometry"/>
                </mxCell>
                <mxCell id="26" value="John Doe" style="rounded=0;whiteSpace=wrap;html=1;" parent="1" vertex="1">
                    <mxGeometry x="600" y="1469" width="220" height="20" as="geometry"/>
                </mxCell>
                <mxCell id="27" value="&lt;font style=&quot;font-size: 14px;&quot;&gt;Cell No:&amp;nbsp;&lt;/font&gt;" style="text;html=1;strokeColor=none;fillColor=none;align=left;verticalAlign=middle;whiteSpace=wrap;rounded=0;" parent="1" vertex="1">
                    <mxGeometry x="600" y="1444" width="220" height="30" as="geometry"/>
                </mxCell>
                <mxCell id="28" value="John Doe" style="rounded=0;whiteSpace=wrap;html=1;" parent="1" vertex="1">
                    <mxGeometry x="600" y="1522" width="220" height="20" as="geometry"/>
                </mxCell>
                <mxCell id="29" value="&lt;font style=&quot;font-size: 14px;&quot;&gt;Company Name:&lt;/font&gt;" style="text;html=1;strokeColor=none;fillColor=none;align=left;verticalAlign=middle;whiteSpace=wrap;rounded=0;" parent="1" vertex="1">
                    <mxGeometry x="600" y="1497" width="220" height="30" as="geometry"/>
                </mxCell>
                <mxCell id="30" value="Register" style="strokeWidth=1;shadow=0;dashed=0;align=center;html=1;shape=mxgraph.mockup.buttons.button;strokeColor=#666666;fontColor=#ffffff;mainText=;buttonStyle=round;fontSize=17;fontStyle=1;fillColor=#008cff;whiteSpace=wrap;" parent="1" vertex="1">
                    <mxGeometry x="635" y="1552" width="150" height="40" as="geometry"/>
                </mxCell>
                <mxCell id="31" value="Register Landing" style="strokeWidth=1;shadow=0;dashed=0;align=center;html=1;shape=mxgraph.mockup.containers.window;align=left;verticalAlign=top;spacingLeft=8;strokeColor2=#008cff;strokeColor3=#c4c4c4;fontColor=#666666;mainText=;fontSize=17;labelBackgroundColor=none;" parent="1" vertex="1">
                    <mxGeometry x="320" y="1490" width="240" height="200" as="geometry"/>
                </mxCell>
                <mxCell id="36" value="&lt;font style=&quot;font-size: 14px;&quot;&gt;&lt;i&gt;a company representative will contact you shortly&lt;/i&gt;&lt;/font&gt;" style="text;html=1;strokeColor=none;fillColor=none;align=center;verticalAlign=middle;whiteSpace=wrap;rounded=0;" parent="1" vertex="1">
                    <mxGeometry x="324" y="1515" width="220" height="52" as="geometry"/>
                </mxCell>
                <mxCell id="37" value="" style="verticalLabelPosition=bottom;shadow=0;dashed=0;align=center;html=1;verticalAlign=top;strokeWidth=1;shape=mxgraph.mockup.graphics.simpleIcon;strokeColor=#999999;fontFamily=Helvetica;fontSize=10;fillColor=#FFFFFF;" parent="1" vertex="1">
                    <mxGeometry x="345" y="1567" width="190" height="63" as="geometry"/>
                </mxCell>
                <mxCell id="38" value="&lt;font style=&quot;font-size: 14px;&quot;&gt;&lt;i&gt;marketing image&lt;/i&gt;&lt;/font&gt;" style="text;html=1;strokeColor=none;fillColor=none;align=center;verticalAlign=middle;whiteSpace=wrap;rounded=0;" parent="1" vertex="1">
                    <mxGeometry x="360" y="1572.5" width="150" height="52" as="geometry"/>
                </mxCell>
                <mxCell id="39" value="&lt;font style=&quot;font-size: 14px;&quot;&gt;&lt;i&gt;marketing message&lt;/i&gt;&lt;/font&gt;" style="text;html=1;strokeColor=none;fillColor=none;align=center;verticalAlign=middle;whiteSpace=wrap;rounded=0;" parent="1" vertex="1">
                    <mxGeometry x="365" y="1630" width="150" height="52" as="geometry"/>
                </mxCell>
                <mxCell id="41" value="Login" style="text;html=1;strokeColor=none;fillColor=none;align=center;verticalAlign=middle;whiteSpace=wrap;rounded=0;" parent="1" vertex="1">
                    <mxGeometry x="13" y="366" width="60" height="30" as="geometry"/>
                </mxCell>
                <mxCell id="44" style="edgeStyle=none;html=1;entryX=1;entryY=0.5;entryDx=0;entryDy=0;exitX=0;exitY=0.5;exitDx=0;exitDy=0;" parent="1" source="42" target="CNkwPxVMg8bD5Nznt0NU-1" edge="1">
                    <mxGeometry relative="1" as="geometry"/>
                </mxCell>
                <mxCell id="42" value="REGISTER LANDING" style="rounded=1;whiteSpace=wrap;html=1;fillColor=#CCFFFF;" parent="1" vertex="1">
                    <mxGeometry x="257" y="267" width="160" height="80" as="geometry"/>
                </mxCell>
                <mxCell id="51" style="edgeStyle=none;html=1;entryX=0.5;entryY=0;entryDx=0;entryDy=0;" parent="1" source="48" target="50" edge="1">
                    <mxGeometry relative="1" as="geometry"/>
                </mxCell>
                <mxCell id="57" style="edgeStyle=none;html=1;entryX=0.5;entryY=1;entryDx=0;entryDy=0;" parent="1" source="48" target="56" edge="1">
                    <mxGeometry relative="1" as="geometry"/>
                </mxCell>
                <mxCell id="48" value="button?" style="rhombus;whiteSpace=wrap;html=1;fillColor=#DEDEDE;" parent="1" vertex="1">
                    <mxGeometry x="257" y="661" width="80" height="80" as="geometry"/>
                </mxCell>
                <mxCell id="53" style="edgeStyle=none;html=1;entryX=0.25;entryY=1;entryDx=0;entryDy=0;" parent="1" source="49" target="CNkwPxVMg8bD5Nznt0NU-2" edge="1">
                    <mxGeometry relative="1" as="geometry"/>
                </mxCell>
                <mxCell id="49" value="UPDATE PASSWORD" style="rounded=1;whiteSpace=wrap;html=1;fillColor=#CCFFFF;" parent="1" vertex="1">
                    <mxGeometry x="33" y="762" width="160" height="80" as="geometry"/>
                </mxCell>
                <mxCell id="52" style="edgeStyle=none;html=1;entryX=1;entryY=0.5;entryDx=0;entryDy=0;" parent="1" source="50" target="49" edge="1">
                    <mxGeometry relative="1" as="geometry"/>
                </mxCell>
                <mxCell id="50" value="Update Password" style="rounded=0;whiteSpace=wrap;html=1;fillColor=#E6E6E6;" parent="1" vertex="1">
                    <mxGeometry x="225" y="770" width="120" height="40" as="geometry"/>
                </mxCell>
                <mxCell id="54" value="Update Password" style="rounded=0;whiteSpace=wrap;html=1;fillColor=#E6E6E6;" parent="1" vertex="1">
                    <mxGeometry x="140" y="502" width="120" height="40" as="geometry"/>
                </mxCell>
                <mxCell id="58" style="edgeStyle=none;html=1;entryX=0;entryY=0.5;entryDx=0;entryDy=0;" parent="1" source="56" target="CNkwPxVMg8bD5Nznt0NU-4" edge="1">
                    <mxGeometry relative="1" as="geometry"/>
                </mxCell>
                <mxCell id="56" value="Sign In" style="rounded=0;whiteSpace=wrap;html=1;fillColor=#E6E6E6;" parent="1" vertex="1">
                    <mxGeometry x="220" y="585" width="120" height="40" as="geometry"/>
                </mxCell>
                <mxCell id="59" value="Travel" style="rounded=0;whiteSpace=wrap;html=1;strokeColor=none;" parent="1" vertex="1">
                    <mxGeometry x="1428.5" y="1152.38" width="220" height="20" as="geometry"/>
                </mxCell>
                <mxCell id="60" value="&lt;span style=&quot;font-size: 14px;&quot;&gt;Hours Type&lt;/span&gt;" style="text;html=1;strokeColor=none;fillColor=none;align=left;verticalAlign=middle;whiteSpace=wrap;rounded=0;" parent="1" vertex="1">
                    <mxGeometry x="1428.5" y="1123.38" width="220" height="30" as="geometry"/>
                </mxCell>
                <mxCell id="61" value="Travel" style="rounded=0;whiteSpace=wrap;html=1;strokeColor=#000000;" parent="1" vertex="1">
                    <mxGeometry x="2770" y="1444" width="220" height="20" as="geometry"/>
                </mxCell>
                <mxCell id="62" value="&lt;span style=&quot;font-size: 14px;&quot;&gt;Hours Type&lt;/span&gt;" style="text;html=1;strokeColor=none;fillColor=none;align=left;verticalAlign=middle;whiteSpace=wrap;rounded=0;" parent="1" vertex="1">
                    <mxGeometry x="2770" y="1415" width="220" height="30" as="geometry"/>
                </mxCell>
                <mxCell id="63" value="Messages" style="strokeWidth=1;shadow=0;dashed=0;align=center;html=1;shape=mxgraph.mockup.buttons.button;strokeColor=#666666;fontColor=#ffffff;mainText=;buttonStyle=round;fontSize=17;fontStyle=1;fillColor=#008cff;whiteSpace=wrap;" parent="1" vertex="1">
                    <mxGeometry x="367" y="1084" width="150" height="40" as="geometry"/>
                </mxCell>
                <mxCell id="68" style="edgeStyle=none;html=1;entryX=0.5;entryY=0;entryDx=0;entryDy=0;" parent="1" source="65" target="67" edge="1">
                    <mxGeometry relative="1" as="geometry"/>
                </mxCell>
                <mxCell id="65" value="Messages" style="rounded=0;whiteSpace=wrap;html=1;fillColor=#E6E6E6;" parent="1" vertex="1">
                    <mxGeometry x="470" y="502" width="120" height="40" as="geometry"/>
                </mxCell>
                <mxCell id="87" style="edgeStyle=none;html=1;exitX=0.5;exitY=1;exitDx=0;exitDy=0;" parent="1" source="67" edge="1">
                    <mxGeometry relative="1" as="geometry">
                        <mxPoint x="470" y="690" as="targetPoint"/>
                    </mxGeometry>
                </mxCell>
                <mxCell id="67" value="All Messages" style="rounded=1;whiteSpace=wrap;html=1;fillColor=#CCFFFF;" parent="1" vertex="1">
                    <mxGeometry x="417" y="567" width="160" height="80" as="geometry"/>
                </mxCell>
                <mxCell id="69" value="All Messages" style="strokeWidth=1;shadow=0;dashed=0;align=center;html=1;shape=mxgraph.mockup.containers.window;align=left;verticalAlign=top;spacingLeft=8;strokeColor2=#008cff;strokeColor3=#c4c4c4;fontColor=#666666;mainText=;fontSize=17;labelBackgroundColor=none;" parent="1" vertex="1">
                    <mxGeometry x="850" y="880" width="240" height="420" as="geometry"/>
                </mxCell>
                <mxCell id="72" value="&lt;span style=&quot;font-size: 10px;&quot;&gt;Note.................................&lt;/span&gt;" style="rounded=0;whiteSpace=wrap;html=1;" parent="1" vertex="1">
                    <mxGeometry x="860" y="1029" width="220" height="45" as="geometry"/>
                </mxCell>
                <mxCell id="73" value="View All Requests" style="strokeWidth=1;shadow=0;dashed=0;align=center;html=1;shape=mxgraph.mockup.buttons.button;strokeColor=#666666;fontColor=#ffffff;mainText=;buttonStyle=round;fontSize=17;fontStyle=1;fillColor=#008cff;whiteSpace=wrap;" parent="1" vertex="1">
                    <mxGeometry x="890" y="922" width="150" height="40" as="geometry"/>
                </mxCell>
                <mxCell id="74" value="View Request" style="strokeWidth=1;shadow=0;dashed=0;align=center;html=1;shape=mxgraph.mockup.buttons.button;strokeColor=#666666;fontColor=#ffffff;mainText=;buttonStyle=round;fontSize=17;fontStyle=1;fillColor=#008cff;whiteSpace=wrap;" parent="1" vertex="1">
                    <mxGeometry x="895" y="1083" width="150" height="40" as="geometry"/>
                </mxCell>
                <mxCell id="76" value="RO2410-006" style="rounded=0;whiteSpace=wrap;html=1;strokeColor=none;" parent="1" vertex="1">
                    <mxGeometry x="855" y="1004.5" width="220" height="20" as="geometry"/>
                </mxCell>
                <mxCell id="77" value="&lt;span style=&quot;font-size: 14px;&quot;&gt;Request Number&lt;/span&gt;" style="text;html=1;strokeColor=none;fillColor=none;align=left;verticalAlign=middle;whiteSpace=wrap;rounded=0;" parent="1" vertex="1">
                    <mxGeometry x="855" y="979.5" width="220" height="30" as="geometry"/>
                </mxCell>
                <mxCell id="78" value="&lt;span style=&quot;font-size: 10px;&quot;&gt;Note.................................&lt;/span&gt;" style="rounded=0;whiteSpace=wrap;html=1;" parent="1" vertex="1">
                    <mxGeometry x="865" y="1187.5" width="220" height="45" as="geometry"/>
                </mxCell>
                <mxCell id="79" value="View Request" style="strokeWidth=1;shadow=0;dashed=0;align=center;html=1;shape=mxgraph.mockup.buttons.button;strokeColor=#666666;fontColor=#ffffff;mainText=;buttonStyle=round;fontSize=17;fontStyle=1;fillColor=#008cff;whiteSpace=wrap;" parent="1" vertex="1">
                    <mxGeometry x="900" y="1241.5" width="150" height="40" as="geometry"/>
                </mxCell>
                <mxCell id="80" value="RO2410-006" style="rounded=0;whiteSpace=wrap;html=1;strokeColor=none;" parent="1" vertex="1">
                    <mxGeometry x="860" y="1163" width="220" height="20" as="geometry"/>
                </mxCell>
                <mxCell id="81" value="&lt;span style=&quot;font-size: 14px;&quot;&gt;Request Number&lt;/span&gt;" style="text;html=1;strokeColor=none;fillColor=none;align=left;verticalAlign=middle;whiteSpace=wrap;rounded=0;" parent="1" vertex="1">
                    <mxGeometry x="860" y="1138" width="220" height="30" as="geometry"/>
                </mxCell>
                <mxCell id="89" style="edgeStyle=none;html=1;entryX=0;entryY=0.25;entryDx=0;entryDy=0;" parent="1" source="82" target="CNkwPxVMg8bD5Nznt0NU-19" edge="1">
                    <mxGeometry relative="1" as="geometry"/>
                </mxCell>
                <mxCell id="82" value="View Requests" style="rounded=0;whiteSpace=wrap;html=1;fillColor=#E6E6E6;" parent="1" vertex="1">
                    <mxGeometry x="550" y="686" width="120" height="40" as="geometry"/>
                </mxCell>
                <mxCell id="85" style="edgeStyle=none;html=1;exitX=1;exitY=0;exitDx=0;exitDy=0;" parent="1" source="83" target="82" edge="1">
                    <mxGeometry relative="1" as="geometry"/>
                </mxCell>
                <mxCell id="86" style="edgeStyle=none;html=1;entryX=0;entryY=0.75;entryDx=0;entryDy=0;exitX=1;exitY=1;exitDx=0;exitDy=0;" parent="1" source="83" target="84" edge="1">
                    <mxGeometry relative="1" as="geometry"/>
                </mxCell>
                <mxCell id="83" value="button?" style="rhombus;whiteSpace=wrap;html=1;fillColor=#E6E6E6;" parent="1" vertex="1">
                    <mxGeometry x="430" y="691" width="80" height="80" as="geometry"/>
                </mxCell>
                <mxCell id="90" style="edgeStyle=none;html=1;entryX=0;entryY=0.75;entryDx=0;entryDy=0;" parent="1" source="84" target="CNkwPxVMg8bD5Nznt0NU-38" edge="1">
                    <mxGeometry relative="1" as="geometry"/>
                </mxCell>
                <mxCell id="84" value="View Requests" style="rounded=0;whiteSpace=wrap;html=1;fillColor=#E6E6E6;" parent="1" vertex="1">
                    <mxGeometry x="550" y="737" width="120" height="40" as="geometry"/>
                </mxCell>
            </root>
        </mxGraphModel>
    </diagram>
</mxfile>